<?xml version="1.0" standalone="yes"?>
<svg xmlns="http://www.w3.org/2000/svg" width="170" height="230">
<path style="fill:#2e2f2d; stroke:none;" d="M0 0L0 76L1 76L4 73L9 66L8 86C19.3229 91.1857 14.9172 78.2363 22.8056 76.9722C26.938 76.3101 28.3967 83.3559 24 84C24.5789 85.9103 24.9854 87.3337 26 85L27 85L37 107L39 99L41 100C41 97.7025 55.3365 106.207 60 99L53 101L57 98L57 97L40 95L40 94L49 72L73 80L74 77L84 81L84 80L75 69L89.054 80.1752L113 92L111 88C121.453 93.4375 105.277 96 101 96L101 95L105 94L105 93L87 98.8511L69 98L70 96L61 98C62.6724 102.176 66.9707 106.103 69 100L74 102L72 98C77.1434 98.2826 79.9232 99.6125 78 105L81 105C84.364 98.9488 88.2895 103.951 91 108L92 108L91 102L95 101L96 104L100 101C102.303 105.149 105.217 104.677 106 100L107 100L107 104L110 103L109 108L116 99L117 99L117 106L118 106L121 101L119 104L120 109L118.359 119L110 136L108 135C101.044 156.393 88.4319 164.935 66 159C69.2327 164.583 77.6649 169.899 84 171.319C92.0923 173.132 98.644 167.146 97 180L99 179L99 180L98 185L99 185L113 171L111 167L111 166C116.204 162.068 111.745 154.263 111.821 149C111.893 144.031 118.506 131.612 122 128L122 123L123 123L123 126L124 126L125 112C134.365 104.967 128.63 85.4439 134.678 76.1698C138.639 70.0972 145.77 69.9404 152 68L152 72C136.72 74.6537 160.698 86.8002 163 89C155.713 89.4483 149.838 94.3139 160 97L166 95L165 97C167.81 100.308 166.679 102.133 163 104L163 105L170 107L170 0L0 0z"/>
<path style="fill:#365c86; stroke:none;" d="M70 34L76 31C72.9309 29.9689 71.7178 31.4794 70 34M66.6667 31.3333L67.3333 31.6667L66.6667 31.3333z"/>
<path style="fill:#8d634b; stroke:none;" d="M66 32L66 33L72 32L66 32z"/>
<path style="fill:#8295ae; stroke:none;" d="M69.6667 31.3333L70.3333 31.6667L69.6667 31.3333z"/>
<path style="fill:#365c86; stroke:none;" d="M62 32L62 34L64 34L62 32z"/>
<path style="fill:#8d634b; stroke:none;" d="M63 32L64 33L63 32z"/>
<path style="fill:#8295ae; stroke:none;" d="M64.6667 32.3333L65.3333 32.6667L64.6667 32.3333z"/>
<path style="fill:#365c86; stroke:none;" d="M67 33L68 34L67 33z"/>
<path style="fill:#8295ae; stroke:none;" d="M71 33L71 34L77 35L77 34L71 33M67 34L68 35L67 34z"/>
<path style="fill:#8d634b; stroke:none;" d="M68 34L69 35L68 34z"/>
<path style="fill:#365c86; stroke:none;" d="M72 34L73 35L72 34z"/>
<path style="fill:#8d634b; stroke:none;" d="M73 34L74 35L73 34M77.6667 34.3333L78.3333 34.6667L77.6667 34.3333z"/>
<path style="fill:#365c86; stroke:none;" d="M74 35L75 36L74 35M78 35L79 36L78 35M80 35L81 36L80 35M100 35L101 36L100 35M95 36L96 37L95 36M74 39L74 42L78 39L74 39M59 40L56 41L55 46L59 40z"/>
<path style="fill:#8d634b; stroke:none;" d="M74 40L75 41L74 40z"/>
<path style="fill:#365c86; stroke:none;" d="M39 43L45 45L44 41L39 43M51 41L50 52L51 52L55 47L52 47L55 43L55 42L51 41z"/>
<path style="fill:#8d634b; stroke:none;" d="M55 41L54 47L55 47L55 41z"/>
<path style="fill:#365c86; stroke:none;" d="M70 41L71 42L70 41M46 42L47 43L46 42z"/>
<path style="fill:#8d634b; stroke:none;" d="M50 42L47 47L47 48L47 49L49 53L50 53L50 42z"/>
<path style="fill:#2e2f2d; stroke:none;" d="M53 42L52 47L53 47L53 42z"/>
<path style="fill:#8d634b; stroke:none;" d="M70.3333 42.6667L70.6667 43.3333L70.3333 42.6667M41 43L42 44L41 43M46 43L42 46C38.1203 43.9886 35.9464 47.9832 33.9151 51.1698C29.0995 58.7244 30.5891 67.5362 29 76L30 76L33 65L34 67L35 67L39 49L40 49L38 57L39 57L46 47L44 48L44 47L46 43z"/>
<path style="fill:#365c86; stroke:none;" d="M49 43L50 44L49 43M69 43L71 46L69 43M46 44L45 46L45 47L49 47L49 44L46 44z"/>
<path style="fill:#2e2f2d; stroke:none;" d="M41 45L42 46L41 45z"/>
<path style="fill:#8295ae; stroke:none;" d="M45 45L46 46L45 45z"/>
<path style="fill:#2e2f2d; stroke:none;" d="M46 45L47 46L46 45M40 46L41 47L40 46z"/>
<path style="fill:#8295ae; stroke:none;" d="M44.3333 46.6667L44.6667 47.3333L44.3333 46.6667z"/>
<path style="fill:#2e2f2d; stroke:none;" d="M47 46L48 47L47 46z"/>
<path style="fill:#365c86; stroke:none;" d="M36 47L35 49L36 47M39 47L40 48L39 47z"/>
<path style="fill:#2e2f2d; stroke:none;" d="M46 47L47 48L46 47M51 47L52 48L51 47z"/>
<path style="fill:#365c86; stroke:none;" d="M56 47L57 48L56 47z"/>
<path style="fill:#8295ae; stroke:none;" d="M36 48L37 49L36 48z"/>
<path style="fill:#2e2f2d; stroke:none;" d="M38 48L39 49L38 48z"/>
<path style="fill:#365c86; stroke:none;" d="M46 48C46.513 50.4751 46.6038 50.5746 49 50L46 48M55 48L56 49L55 48z"/>
<path style="fill:#2e2f2d; stroke:none;" d="M37 49L33 57L34 57L37 49z"/>
<path style="fill:#365c86; stroke:none;" d="M39 49L40 50L39 49M44 49L45 50L44 49M53 49L53 51L55 49L53 49M37 50L38 51L37 50z"/>
<path style="fill:#2e2f2d; stroke:none;" d="M39 50L36 59L37 59L39 50z"/>
<path style="fill:#365c86; stroke:none;" d="M33 51L34 52L33 51M42 51L43 52L42 51M36 52L37 53L36 52M32 53L33 54L32 53M49 53L50 54L49 53M35 54L36 55L35 54M38 54L39 55L38 54M40 54L40 57L41 57L40 54M31 55L32 56L31 55M33 55L34 56L33 55M34 56L35 57L34 56z"/>
<path style="fill:#2e2f2d; stroke:none;" d="M39.3333 56.6667L39.6667 57.3333L39.3333 56.6667z"/>
<path style="fill:#365c86; stroke:none;" d="M30.3333 57.6667L30.6667 58.3333L30.3333 57.6667M32.6667 57.3333L33.3333 57.6667L32.6667 57.3333M37 57L37 59L39 57L37 57z"/>
<path style="fill:#8d634b; stroke:none;" d="M40 57L39 60L40 57z"/>
<path style="fill:#365c86; stroke:none;" d="M97 57L97 60L98 60L97 57M35 58L36 59L35 58M39 58L40 59L39 58M29 59L30 64L29 59M36.3333 59.6667L36.6667 60.3333L36.3333 59.6667M40 59L41 60L40 59M31.3333 60.6667L31.6667 61.3333L31.3333 60.6667M39 60L40 61L39 60M38 61L39 62L38 61M130 61L131 62L130 61M34 62L35 63L34 62M8 63L8 64L12 64L8 63z"/>
<path style="fill:#2e2f2d; stroke:none;" d="M30 63L31 64L30 63z"/>
<path style="fill:#365c86; stroke:none;" d="M32 63L31 66L32 63M0 64L1 65L0 64M25.3333 64.6667L25.6667 65.3333L25.3333 64.6667M35 64L36 65L35 64M42 64L39 67L38 69C38.4929 71.4643 38.5912 73.6478 36 73L36 74L39 75L42 64M28 65L29 66L28 65M33 65L32 70L33 70L33 65M4 73C-4.58942 78.0187 5.4413 88.5286 11 92L0 100C0 110.703 -3.46433 129.089 5.58411 137.143C8.82903 140.031 14.2193 138.641 17.4375 141.638C19.2732 143.348 18.155 145.776 19.1019 147.851C20.7622 151.49 25.6033 153.443 29 155L21 169C30.9383 163.845 46.4256 154.786 42.9213 141.104C41.3232 134.865 35.655 128.937 34 122L31 118L27 119L26 115C26.7615 107.791 20.0371 99.7035 29 95L27 85L26 85L25 87L24 84C28.8534 83.3901 26.8778 75.7483 22.1528 76.963C14.7516 78.8656 18.5332 89.0677 8 86C11.2484 79.039 11.0548 73.3321 9 66C5.24861 67.5214 3.39008 68.8176 4 73M29 66L28 76L29 76L31 66L29 66M12 68L12 74L14 74L12 68M34.3333 68.6667L34.6667 69.3333L34.3333 68.6667z"/>
<path style="fill:#8d634b; stroke:none;" d="M39 68L40 69L39 68z"/>
<path style="fill:#365c86; stroke:none;" d="M128 114L127 115L125 114L124 126L123 126L123 123L122 123L122 128L119 136L114 146L111 146L111 147L152 154L152 155L149 158C142.196 152.228 135.802 152.434 132 161L130 161L130 154L114 150L115 156L119 154C120.338 155.841 122.568 156.69 123 154C127.453 156.92 125.22 163.527 124 168C131.908 168.78 132.162 159.955 138.093 156.908C142.218 154.79 145.595 158.445 143 162L144 164L137 165L138 168L144 166C142.755 170.382 140.634 172.39 136 172L141 175L133 180L135 184L129 190L126 191L125 188L124 188L122 194L120 193L115 200L103 207L104 210L91 217C90.5011 211.98 93.1391 210.066 98 210L96 204L100 199C92.8346 202.519 81.9622 200.573 76 195L50 201L47 191C44.2427 192.379 42.1818 194.273 43 191L41 194L40 194L33 183L30 184L34 191L34 192C27.7283 192.041 25.1917 187.373 19.561 185.769C15.1111 184.502 5.09254 190.744 2 194L9 199L0 196L0 230L5 228L6 228C8.43477 230.786 12.4836 230 16 230L43 230L119 230C132.296 230 147.238 231.982 160 228L159 194L160 194L163 218L166 216L166 215L164 214C167.476 209.863 167.698 203.021 167.883 197.715C168.309 185.557 174.084 168.083 169.16 156.424C165.948 148.818 155.661 147.31 154 141C157.662 142.648 159.032 142.287 162.424 140.255C164.303 139.129 167.586 139.048 168.972 137.362C173.648 131.674 166.83 123.46 166 118L170 118L170 108L170 107L163 105L163 104C167.099 102.757 168.891 99.849 165 97L166 95L160 97C150.777 93.3049 156.713 90.2166 163 89C160.831 85.955 138.093 76.4071 152 72L152 68C145.938 69.2278 139.677 69.4782 135.321 74.4282C132.343 77.813 132.844 83.455 132.171 87.7153C130.895 95.7976 125.799 105.662 128 114z"/>
<path style="fill:#8d634b; stroke:none;" d="M75 69C76.2464 74.242 79.2717 77.5264 84 80L84 81L74 77L73 80L63 75L63 76C69.3398 79.7388 75.6285 82.624 82.9853 83.716C89.6264 84.7018 100.415 84.3987 104 91C97.084 91.1473 90.1705 93.2807 85 98L105 93L105 94L101 95L101 96C104.218 95.7315 108.732 96.6333 111.691 95.3827C116.339 93.4186 114.847 89.2315 111 88L113 92L90.0185 80.1752L75 69z"/>
<path style="fill:#365c86; stroke:none;" d="M31 70L32 71L31 70z"/>
<path style="fill:#8d634b; stroke:none;" d="M38 70L39 71L38 70M37 71L37 74L38 74L37 71z"/>
<path style="fill:#365c86; stroke:none;" d="M79 71L80 72L79 71z"/>
<path style="fill:#2e2f2d; stroke:none;" d="M29 72L30 73L29 72z"/>
<path style="fill:#8d634b; stroke:none;" d="M49 72C47.4006 78.1953 35.7095 93.5362 47 96L47 95C41.1107 91.7415 44.5339 86.7127 47 82L51 84L52 77L57 79L62 74L49 72z"/>
<path style="fill:#365c86; stroke:none;" d="M76 73L77 74L76 73M82 73L83 74L82 73z"/>
<path style="fill:#8d634b; stroke:none;" d="M36 74L36 78L37 78L36 74z"/>
<path style="fill:#d5b29e; stroke:none;" d="M57 79L52 77L51 84C45.0742 83.5464 39.5887 91.6821 46.2284 95.1458C52.6418 98.4915 62.0189 96 69 96L69 95L58 90L86 99C88.0436 92.4473 98.408 91.4788 104 89L99 88L100 86C86.3762 86.3955 76.1969 80.883 64.0008 76.4105C60.6155 75.169 58.7006 76.1217 57 79z"/>
<path style="fill:#8295ae; stroke:none;" d="M62 75L63 76L62 75z"/>
<path style="fill:#365c86; stroke:none;" d="M29.6667 76.3333L30.3333 76.6667L29.6667 76.3333z"/>
<path style="fill:#8295ae; stroke:none;" d="M57 76L58 77L57 76z"/>
<path style="fill:#365c86; stroke:none;" d="M27 77L28 78L27 77z"/>
<path style="fill:#8d634b; stroke:none;" d="M30 77L31 78L30 77z"/>
<path style="fill:#365c86; stroke:none;" d="M35 77L35 80L36 80L35 77M30 78L31 79L30 78z"/>
<path style="fill:#8295ae; stroke:none;" d="M69 79L70 80L69 79z"/>
<path style="fill:#8d634b; stroke:none;" d="M35 80L34 83L35 83L35 80z"/>
<path style="fill:#8295ae; stroke:none;" d="M70 80L71 81L70 80z"/>
<path style="fill:#2e2f2d; stroke:none;" d="M0 81C0.00313865 85.0596 -0.506864 88.4709 3 91L0 92L0 100L11 92L0 81z"/>
<path style="fill:#365c86; stroke:none;" d="M28 81L29 82L28 81M35 81L36 82L35 81z"/>
<path style="fill:#8295ae; stroke:none;" d="M72 81L73 82L72 81M47 82L48 83L47 82M75 82L75 83L80 83L75 82z"/>
<path style="fill:#365c86; stroke:none;" d="M34 83L35 84L34 83z"/>
<path style="fill:#8295ae; stroke:none;" d="M46 83L47 84L46 83M87 83L88 84L87 83M82 84L82 85L87 85L82 84M91 84L92 85L91 84z"/>
<path style="fill:#365c86; stroke:none;" d="M34 85L35 86L34 85z"/>
<path style="fill:#8295ae; stroke:none;" d="M93 85L94 86L93 85z"/>
<path style="fill:#8d634b; stroke:none;" d="M34 86L35 87L34 86z"/>
<path style="fill:#8295ae; stroke:none;" d="M44 86L45 87L44 86M98 86L99 87L98 86z"/>
<path style="fill:#365c86; stroke:none;" d="M34 87L35 88L34 87z"/>
<path style="fill:#8295ae; stroke:none;" d="M99.6667 87.3333L100.333 87.6667L99.6667 87.3333M102 87L103 88L102 87M43 88L44 89L43 88M103 89L100 90L100 91L103 89z"/>
<path style="fill:#365c86; stroke:none;" d="M0 90L3 92L0 90z"/>
<path style="fill:#8295ae; stroke:none;" d="M58 90L64 93L64 92L58 90M64 90L64 91L70 91L64 90z"/>
<path style="fill:#8d634b; stroke:none;" d="M62 91L62 92L69 98L82 99L82 96C75.3215 92.1167 69.6405 91.0008 62 91z"/>
<path style="fill:#8295ae; stroke:none;" d="M72 91L73 92L72 91M97 91L98 92L97 91M75 92L76 93L75 92M94 92L95 93L94 92z"/>
<path style="fill:#365c86; stroke:none;" d="M37 93L38 94L37 93z"/>
<path style="fill:#8295ae; stroke:none;" d="M43 93L44 94L43 93M66 93L67 94L66 93M77 93L78 94L77 93M90 93L90 94L93 94L90 93z"/>
<path style="fill:#365c86; stroke:none;" d="M40.6667 94.3333L41.3333 94.6667L40.6667 94.3333z"/>
<path style="fill:#8295ae; stroke:none;" d="M68 94L69 95L68 94M80 94L81 95L80 94z"/>
<path style="fill:#8d634b; stroke:none;" d="M26 115L27 119L31 118L34 122L25 102C28.0629 103.173 30.6463 103.543 33 101L34 101L32 109L38 109L40 99L39 99L37 107L34 97L33 97L33 100L26 101L25 101L30 96C20.1029 92.7963 25.717 110.923 26 115z"/>
<path style="fill:#365c86; stroke:none;" d="M30 95L31 96L30 95z"/>
<path style="fill:#8295ae; stroke:none;" d="M69 95L70 96L69 95M81 95L82 96L81 95M88 95L89 96L88 95M104 95L104 96L107 96L104 95z"/>
<path style="fill:#d5b29e; stroke:none;" d="M25 100L33 99C29.8674 95.8503 27.1822 96.0582 25 100z"/>
<path style="fill:#8d634b; stroke:none;" d="M31 96L32 97L31 96M48 96L49 97L48 96z"/>
<path style="fill:#8295ae; stroke:none;" d="M49.6667 96.3333L50.3333 96.6667L49.6667 96.3333M56.6667 96.3333L57.3333 96.6667L56.6667 96.3333z"/>
<path style="fill:#8d634b; stroke:none;" d="M58 99L54 98L53 100L53 101L60 99C54.8781 102.939 52.5827 102.7 47 100C49.7988 103.594 53.0372 109.654 57.0548 111.821C66.7577 117.054 79.4537 110.472 84 102L83 101L81 105L78 105C76.7859 114.054 57.5722 112.542 54 106C59.5395 106.818 65.3075 110.134 70.9606 108.347C78.864 105.849 82.6701 98.2588 72 98L74 102L69 100L66 106L61 106L64 104L61 98L66 97C62.9967 95.5497 58.4832 95.1545 58 99M67.6667 96.3333L68.3333 96.6667L67.6667 96.3333z"/>
<path style="fill:#8295ae; stroke:none;" d="M82 96L85 99L85 98L82 96M86 96L87 97L86 96M32 97L33 98L32 97z"/>
<path style="fill:#365c86; stroke:none;" d="M63.6667 97.3333L64.3333 97.6667L63.6667 97.3333z"/>
<path style="fill:#8d634b; stroke:none;" d="M40.6667 98.3333L41.3333 98.6667L40.6667 98.3333z"/>
<path style="fill:#8295ae; stroke:none;" d="M42 98L43 99L42 98z"/>
<path style="fill:#8d634b; stroke:none;" d="M43 98L44 99L43 98z"/>
<path style="fill:#8295ae; stroke:none;" d="M55 98L55 99L58 99L55 98z"/>
<path style="fill:#8d634b; stroke:none;" d="M94 98L95 99L94 98M95 101L100 99L95 101M109.667 98.3333L110.333 98.6667L109.667 98.3333M115 98L116 99L115 98z"/>
<path style="fill:#8295ae; stroke:none;" d="M32 99L33 100L32 99z"/>
<path style="fill:#d5b29e; stroke:none;" d="M41 99L38 110L32 109L34 101L33 101L25 102C27.7565 115.179 36.7033 126.011 45 136L46 136L46 133L47 133L56 144L65 144C68.2762 130.354 92.2667 143.298 96 131C101.85 132.474 117.08 125.491 111.954 117.434C109.584 113.708 100.945 113.972 97 113L101 128C91.277 132.135 84.009 128.044 74 126L74 124C78.3076 123.236 84.0837 124.855 87.8873 122.678C95.4111 118.372 88.6409 104.989 84 101C84.36 111.079 66.6947 115.338 59 112.667C54.5414 111.119 53.3853 106.546 50.1667 103.667C47.1759 100.991 45.1195 99.1084 41 99z"/>
<path style="fill:#8d634b; stroke:none;" d="M45 99L46 100L45 99z"/>
<path style="fill:#8295ae; stroke:none;" d="M54 99L55 100L54 99z"/>
<path style="fill:#8d634b; stroke:none;" d="M65 99L66 100L65 99M83.6667 99.3333L84.3333 99.6667L83.6667 99.3333M116 99L109 108C110.212 105.213 110.389 103.613 107 104L108 101L99 105L100 101L96 104L95 101L91 102L92 108L91 108L87 103C89.6604 111.164 94.9244 126.377 80 123C80.6989 126.494 77.4423 125.231 78 123L74 124L74 126C83.2841 128.659 92.171 133.319 101 128L94 112C98.7205 114.298 107.846 112.961 111.461 116.603C118.755 123.952 101.08 131.62 96 132L94 137C87.3556 134.785 81.1972 136.451 75 138C72.6242 138.594 71.0085 136.163 69 137C65.7738 138.344 63.1013 142.42 66 143L66 144L44 140C41.8347 134.387 40.9039 127.599 35 125L42 146L45 141L46 141C47.8477 146.426 49.8395 151.112 55 154L54 156C64.6789 163.58 76.2808 174.665 83 186L70 192L83 193L83 192L79 191L79 190L86 187C92.2929 196.583 98.032 185.269 99 179L97 180C100.531 166.887 91.3507 172.719 84 170.926C77.4866 169.337 70.317 163.936 66 159C87.5394 166.85 102.805 155.845 108 135L110 136L118.363 120L120 109L119 104L121 101L118 106L117 106L116 99z"/>
<path style="fill:#8295ae; stroke:none;" d="M25 100L26 101L25 100z"/>
<path style="fill:#2e2f2d; stroke:none;" d="M29 100L30 101L29 100z"/>
<path style="fill:#8295ae; stroke:none;" d="M46 100L47 101L46 100z"/>
<path style="fill:#8d634b; stroke:none;" d="M91 100L92 101L91 100z"/>
<path style="fill:#365c86; stroke:none;" d="M102 100L103 101L102 100M106 100L107 101L106 100z"/>
<path style="fill:#8d634b; stroke:none;" d="M38 101L39 102L38 101z"/>
<path style="fill:#8295ae; stroke:none;" d="M47 101L48 102L47 101M59 103L62 101L59 103M83 101L84 102L83 101M85 101L86 102L85 101z"/>
<path style="fill:#8d634b; stroke:none;" d="M86.3333 101.667L86.6667 102.333L86.3333 101.667M102 101L103 102L102 101z"/>
<path style="fill:#8295ae; stroke:none;" d="M84 102L85 103L84 102M99 102L99 105L100 105L99 102M33 103L34 104L33 103M49.6667 103.333L50.3333 103.667L49.6667 103.333z"/>
<path style="fill:#d5b29e; stroke:none;" d="M99 103L100 104L99 103z"/>
<path style="fill:#2e2f2d; stroke:none;" d="M15 104L16 105L15 104z"/>
<path style="fill:#8295ae; stroke:none;" d="M25 104L26 105L25 104M51 104L52 105L51 104M61 106L66 106L61 106M75 105L79 107L78 104L75 105M82 104L83 105L82 104M87 104L88 105L87 104z"/>
<path style="fill:#d5b29e; stroke:none;" d="M63.6667 105.333L64.3333 105.667L63.6667 105.333z"/>
<path style="fill:#8295ae; stroke:none;" d="M39 106L40 107L39 106z"/>
<path style="fill:#d5b29e; stroke:none;" d="M54 106C56.0159 112.133 63.6089 110.999 69 111L69 110L54 106z"/>
<path style="fill:#8295ae; stroke:none;" d="M55 106L55 107L58 107L55 106z"/>
<path style="fill:#d5b29e; stroke:none;" d="M70 109L70 110C73.8164 109.907 76.6343 109.884 78 106L70 109z"/>
<path style="fill:#8295ae; stroke:none;" d="M94 109L95 109L96 107L94 109z"/>
<path style="fill:#2e2f2d; stroke:none;" d="M4 107C3.4526 110.56 4.50994 111.419 8 112L4 107z"/>
<path style="fill:#8295ae; stroke:none;" d="M38.3333 107.667L38.6667 108.333L38.3333 107.667M60 107L61 108L60 107z"/>
<path style="fill:#d5b29e; stroke:none;" d="M94 107L97 110L97 107L94 107z"/>
<path style="fill:#8d634b; stroke:none;" d="M95 107L96 108L95 107z"/>
<path style="fill:#8295ae; stroke:none;" d="M36 108L37 109L36 108M61 108L61 109L64 110L61 108M96 108L97 109L96 108z"/>
<path style="fill:#d5b29e; stroke:none;" d="M115 108L116 109L115 108z"/>
<path style="fill:#2e2f2d; stroke:none;" d="M116 108L117 109L116 108M168 108L168 111L170 111L170 108L168 108z"/>
<path style="fill:#8295ae; stroke:none;" d="M37 109L38 110L37 109M65 109L65 110L72 111L65 109M97 109L98 110L97 109z"/>
<path style="fill:#d5b29e; stroke:none;" d="M113 109L114 110L113 109z"/>
<path style="fill:#8295ae; stroke:none;" d="M114 109L115 110L114 109M27 110L28 111L27 110M77 110L78 111L77 110M91 110L93 112L93 110L91 110M107.667 110.333L108.333 110.667L107.667 110.333z"/>
<path style="fill:#2e2f2d; stroke:none;" d="M113.667 110.333L114.333 110.667L113.667 110.333z"/>
<path style="fill:#8295ae; stroke:none;" d="M72.3333 111.667L72.6667 112.333L72.3333 111.667M75 111L76 112L75 111z"/>
<path style="fill:#2e2f2d; stroke:none;" d="M100 111L101 112L100 111M102 111L102 112L110 112L102 111z"/>
<path style="fill:#8d634b; stroke:none;" d="M127 111L128 112L127 111M25 112L26 113L25 112z"/>
<path style="fill:#8295ae; stroke:none;" d="M28 112L29 113L28 112M69.6667 112.333L70.3333 112.667L69.6667 112.333M94 112L96 115L94 112z"/>
<path style="fill:#365c86; stroke:none;" d="M125 112L126 113L125 112z"/>
<path style="fill:#8d634b; stroke:none;" d="M126 112L126 115L128 114L128 113L126 112z"/>
<path style="fill:#8295ae; stroke:none;" d="M64 113L65 114L64 113M98 113L99 114L98 113M29 114L30 115L29 114M110.667 115.333L111.333 115.667L110.667 115.333M30 116L31 117L30 116M112 116L113 117L112 116M31 117L32 118L31 117M91 117L92 118L91 117z"/>
<path style="fill:#d5b29e; stroke:none;" d="M94 118L96 121L94 118z"/>
<path style="fill:#8295ae; stroke:none;" d="M96 118L97 119L96 118M113.333 118.667L113.667 119.333L113.333 118.667z"/>
<path style="fill:#2e2f2d; stroke:none;" d="M166 118L170 125L170 118L166 118z"/>
<path style="fill:#8295ae; stroke:none;" d="M91 119L92 120L91 119M33 120L34 121L33 120M97 120L98 121L97 120z"/>
<path style="fill:#2e2f2d; stroke:none;" d="M32 121L33 122L32 121z"/>
<path style="fill:#8295ae; stroke:none;" d="M94 121L95 122L94 121M88 122L89 123L88 122M98 122L99 123L98 122z"/>
<path style="fill:#2e2f2d; stroke:none;" d="M33 123L34 124L33 123M77 124L77 125L81 125L77 124z"/>
<path style="fill:#8295ae; stroke:none;" d="M81 123L82 124L81 123M87 123L88 124L87 123z"/>
<path style="fill:#2e2f2d; stroke:none;" d="M86 128C90.596 127.999 96.2113 129.087 98 124C92.7619 123.887 89.0959 122.81 86 128z"/>
<path style="fill:#8295ae; stroke:none;" d="M111 123L112 124L111 123z"/>
<path style="fill:#8d634b; stroke:none;" d="M34 124L35 125L34 124z"/>
<path style="fill:#8295ae; stroke:none;" d="M36 125L37 126L36 125z"/>
<path style="fill:#8d634b; stroke:none;" d="M22 126L23 127L22 126z"/>
<path style="fill:#8295ae; stroke:none;" d="M39.3333 126.667L39.6667 127.333L39.3333 126.667M107 127L108 128L107 127M40 128L40 131L41 131L40 128M106 128L107 129L106 128z"/>
<path style="fill:#2e2f2d; stroke:none;" d="M0 129L0 181C11.9687 175.405 24.5317 168 29 155L19.7577 147.812L18.1335 141.728L7.14738 137.686L0 129z"/>
<path style="fill:#8d634b; stroke:none;" d="M32 130L32 133L34 133L34 130L32 130z"/>
<path style="fill:#8295ae; stroke:none;" d="M41 131L41 134L42 134L41 131M96 131L97 132L96 131M103 131L104 132L103 131M46 133L46 136L45 136L42 134L44 140L50 138L46 133M95 134L96 135L95 134z"/>
<path style="fill:#8d634b; stroke:none;" d="M118.333 134.667L118.667 135.333L118.333 134.667z"/>
<path style="fill:#8295ae; stroke:none;" d="M92.6667 136.333L93.3333 136.667L92.6667 136.333z"/>
<path style="fill:#2e2f2d; stroke:none;" d="M103 137L82 140L82 141L99 144L105 138L103 137M27 138L26 141L29 141L27 138z"/>
<path style="fill:#8295ae; stroke:none;" d="M50 138L51 139L50 138M65 138L66 139L65 138z"/>
<path style="fill:#2e2f2d; stroke:none;" d="M154 141L153 144L170 156L170 138L154 141z"/>
<path style="fill:#8295ae; stroke:none;" d="M46 139L47 140L46 139M51 139L52 140L51 139M66 139L67 140L66 139z"/>
<path style="fill:#2e2f2d; stroke:none;" d="M68 139L68 140L79 140L68 139z"/>
<path style="fill:#8295ae; stroke:none;" d="M52 140L53 141L52 140M65 140L64 142L66 142L65 140M44 142L44 143L46 144L47 144L46 141L44 142M53 141L54 142L53 141M55 141L54 143L56 143L55 141z"/>
<path style="fill:#d5b29e; stroke:none;" d="M65 147C67.4097 162.691 81.0111 156.12 91 153L73 149L73 145L75 143L90 144C81.4859 138.15 71.9032 141.245 65 147M45 142L39.3511 157.492L24 169C29.1553 167.932 33.2875 164.476 36 160L37 160L44 192L61.8302 186.211L71.9606 180.566L80 183L53.0833 154.972L45 142z"/>
<path style="fill:#8295ae; stroke:none;" d="M57.6667 143.333L58.3333 143.667L57.6667 143.333M65 143L66 144L65 143M68 143L69 144L68 143z"/>
<path style="fill:#2e2f2d; stroke:none;" d="M103 143L104 144L103 143z"/>
<path style="fill:#8d634b; stroke:none;" d="M115 143L116 144L115 143z"/>
<path style="fill:#8295ae; stroke:none;" d="M59 144L59 145L63 145L59 144z"/>
<path style="fill:#2e2f2d; stroke:none;" d="M78 147L78 148C85.3041 150.31 91.9342 150.41 97 144L78 147z"/>
<path style="fill:#8d634b; stroke:none;" d="M113.333 144.667L113.667 145.333L113.333 144.667z"/>
<path style="fill:#8295ae; stroke:none;" d="M47.3333 145.667L47.6667 146.333L47.3333 145.667M67 145L68 146L67 145M43 146L44 147L43 146M65.6667 146.333L66.3333 146.667L65.6667 146.333z"/>
<path style="fill:#8d634b; stroke:none;" d="M112 146C111.622 150.217 112.605 158.285 116 161L115 148L112 146z"/>
<path style="fill:#8295ae; stroke:none;" d="M48.3333 147.667L48.6667 148.333L48.3333 147.667M64 147L65 148L64 147M42 148L43 149L42 148M65 148L66 149L65 148M75 148L76 149L75 148M49.3333 149.667L49.6667 150.333L49.3333 149.667z"/>
<path style="fill:#365c86; stroke:none;" d="M111 149L112 150L111 149z"/>
<path style="fill:#8295ae; stroke:none;" d="M115 149L130 154L130 161L132 161C137.102 153.05 141.386 153.206 149 158L152 155C142.35 149.181 126.019 149 115 149M64 150L65 151L64 150M81 150L81 151L84 151L81 150z"/>
<path style="fill:#365c86; stroke:none;" d="M112 150L112 153L113 153L112 150z"/>
<path style="fill:#8295ae; stroke:none;" d="M41 151L42 152L41 151M50 151L54 156L55 155L50 151M65 151L66 152L65 151z"/>
<path style="fill:#2e2f2d; stroke:none;" d="M114 151L115 152L114 151M162 151L162 153L159 152L161 157L167 155L162 151z"/>
<path style="fill:#8295ae; stroke:none;" d="M66 152L67 153L66 152M91 152L92 153L91 152z"/>
<path style="fill:#2e2f2d; stroke:none;" d="M115.333 152.667L115.667 153.333L115.333 152.667z"/>
<path style="fill:#8295ae; stroke:none;" d="M67.3333 153.667L67.6667 154.333L67.3333 153.667M85 154L86 155L85 154M114 154L115 155L114 154z"/>
<path style="fill:#2e2f2d; stroke:none;" d="M117 154C115.09 163.924 133.259 174.369 123 183L126 179L115 169L106.347 188.896L95 202L100 199L96 204L98 210C92.9767 209.358 89.8317 211.779 91 217L104 210L103 207L115 200L120 193L122 194L124 188L125 188L126 191L129 190L135 184L133 180L141 175L136 172C140.926 173.089 143.244 170.839 144 166L138 168L137 165L144 164L143 162C147.446 158.721 142.31 154.425 138.093 156.202C131.747 158.877 131.876 167.247 124 168C125.56 164.212 128.384 155.154 123 154C123 157.341 120.406 155.726 119 154L117 154z"/>
<path style="fill:#8295ae; stroke:none;" d="M68 155L69 156L68 155M84 155L85 156L84 155z"/>
<path style="fill:#365c86; stroke:none;" d="M113 155L114 156L113 155z"/>
<path style="fill:#8295ae; stroke:none;" d="M152 155L152 156L158 162L161 158L152 155M40 156L41 157L40 156M54 156L56 158L56 156L54 156M79 156L80 157L79 156M81 156L82 157L81 156z"/>
<path style="fill:#2e2f2d; stroke:none;" d="M167 156L168 157L167 156z"/>
<path style="fill:#8295ae; stroke:none;" d="M71 157L72 158L71 157z"/>
<path style="fill:#365c86; stroke:none;" d="M113.333 157.667L113.667 158.333L113.333 157.667z"/>
<path style="fill:#8295ae; stroke:none;" d="M115 157L116 161L114 168L115 168L117 163C117.724 168.971 122.316 175.385 127 179L115 157M36 158L36 159L40 159L36 158M57 158L58 159L57 158z"/>
<path style="fill:#2e2f2d; stroke:none;" d="M64 158L65 159L64 158z"/>
<path style="fill:#365c86; stroke:none;" d="M116 158L117 159L116 158M143 158L144 159L143 158z"/>
<path style="fill:#2e2f2d; stroke:none;" d="M151.333 158.667L151.667 159.333L151.333 158.667z"/>
<path style="fill:#8295ae; stroke:none;" d="M34.6667 159.333L35.3333 159.667L34.6667 159.333M58 159L59 160L58 159M163 159L168 163L163 159M27 164L27 165L34 161L27 164M36 160C32.0058 164.441 28.275 168.538 22 168L23 170L22 170L12 174C10.639 178.91 4.96355 183.162 0 184C0.0137025 190.53 -0.569474 201.179 9 199L2 194L18.7106 185.918L34 192L34 191L30 184L32 183L33 183L40 194L41 194C42.4427 189.863 45.4194 176.958 39 176L36 160M59 160L60 161L59 160z"/>
<path style="fill:#365c86; stroke:none;" d="M113 160L114 161L113 160M117 160L118 161L117 160z"/>
<path style="fill:#8d634b; stroke:none;" d="M30 161L31 162L30 161z"/>
<path style="fill:#8295ae; stroke:none;" d="M60 161L61 162L60 161z"/>
<path style="fill:#8d634b; stroke:none;" d="M113 161L114 162L113 161z"/>
<path style="fill:#365c86; stroke:none;" d="M113 162L114 163L113 162z"/>
<path style="fill:#2e2f2d; stroke:none;" d="M162 162L159 192L160 192C161.072 184.576 165.373 168.279 162 162z"/>
<path style="fill:#8d634b; stroke:none;" d="M28 163L29 164L28 163z"/>
<path style="fill:#8295ae; stroke:none;" d="M62 163L63 164L62 163z"/>
<path style="fill:#d5b29e; stroke:none;" d="M115 163L114 169L119 169L117 163L115 163z"/>
<path style="fill:#365c86; stroke:none;" d="M119 163L120 164L119 163z"/>
<path style="fill:#2e2f2d; stroke:none;" d="M150.333 163.667L150.667 164.333L150.333 163.667z"/>
<path style="fill:#8295ae; stroke:none;" d="M63 164L64 165L63 164z"/>
<path style="fill:#365c86; stroke:none;" d="M113 164L113 168L114 168L113 164M120 164L121 165L120 164z"/>
<path style="fill:#8295ae; stroke:none;" d="M26 165L27 166L26 165M64 165L65 166L64 165M25 166L26 167L25 166z"/>
<path style="fill:#365c86; stroke:none;" d="M111 166L112 167L111 166z"/>
<path style="fill:#8d634b; stroke:none;" d="M112 166L114 169L112 166z"/>
<path style="fill:#365c86; stroke:none;" d="M121 166L122 167L121 166z"/>
<path style="fill:#8295ae; stroke:none;" d="M24 167L25 168L24 167z"/>
<path style="fill:#365c86; stroke:none;" d="M37 167L38 168L37 167z"/>
<path style="fill:#8295ae; stroke:none;" d="M67.6667 168.333L68.3333 168.667L67.6667 168.333M117 168L118 169L117 168z"/>
<path style="fill:#365c86; stroke:none;" d="M19 169L20 170L19 169z"/>
<path style="fill:#d5b29e; stroke:none;" d="M21.6667 169.333L22.3333 169.667L21.6667 169.333z"/>
<path style="fill:#365c86; stroke:none;" d="M113 169L114 170L113 169z"/>
<path style="fill:#8295ae; stroke:none;" d="M114 169L113 173L110 175L113 175L114 169z"/>
<path style="fill:#365c86; stroke:none;" d="M118 169L119 170L118 169M123 169L124 170L123 169M16.6667 170.333L17.3333 170.667L16.6667 170.333z"/>
<path style="fill:#d5b29e; stroke:none;" d="M20 170L19 172L20 170z"/>
<path style="fill:#8295ae; stroke:none;" d="M70 170L71 171L70 170z"/>
<path style="fill:#8d634b; stroke:none;" d="M114 170L115 171L114 170z"/>
<path style="fill:#365c86; stroke:none;" d="M124.333 170.667L124.667 171.333L124.333 170.667M15 171L16 172L15 171z"/>
<path style="fill:#8295ae; stroke:none;" d="M71 171L74 174L71 171z"/>
<path style="fill:#365c86; stroke:none;" d="M111.667 171.333L112.333 171.667L111.667 171.333M120 171L121 172L120 171M14 172L15 173L14 172z"/>
<path style="fill:#d5b29e; stroke:none;" d="M13 174L13 175L18 173L13 174z"/>
<path style="fill:#365c86; stroke:none;" d="M38 172L39 173L38 172M109.667 172.333L110.333 172.667L109.667 172.333z"/>
<path style="fill:#d5b29e; stroke:none;" d="M112 172L113 173L112 172z"/>
<path style="fill:#365c86; stroke:none;" d="M12 173L13 174L12 173z"/>
<path style="fill:#8d634b; stroke:none;" d="M109 173L108 177L109 173z"/>
<path style="fill:#365c86; stroke:none;" d="M113 173L114 174L113 173M125 173L126 174L125 173M11 174L12 175L11 174M39.3333 174.667L39.6667 175.333L39.3333 174.667z"/>
<path style="fill:#8295ae; stroke:none;" d="M67.6667 174.333L68.3333 174.667L67.6667 174.333z"/>
<path style="fill:#d5b29e; stroke:none;" d="M111 174L110 178L111 178L111 174z"/>
<path style="fill:#365c86; stroke:none;" d="M122 174L123 175L122 174M9 175L8 177L9 175z"/>
<path style="fill:#8295ae; stroke:none;" d="M10 175L0 182L0 183L10 175z"/>
<path style="fill:#d5b29e; stroke:none;" d="M0 184L1 185L13 175L0 184z"/>
<path style="fill:#365c86; stroke:none;" d="M34 175L35 176L34 175z"/>
<path style="fill:#8295ae; stroke:none;" d="M74 175L77 178L74 175z"/>
<path style="fill:#365c86; stroke:none;" d="M107 175L107 179L110 178L107 175z"/>
<path style="fill:#8295ae; stroke:none;" d="M68 176L71 179L68 176z"/>
<path style="fill:#8d634b; stroke:none;" d="M106 176L105 178L107 178L106 176z"/>
<path style="fill:#8295ae; stroke:none;" d="M110 176L111 177L110 176z"/>
<path style="fill:#365c86; stroke:none;" d="M123 176L124 177L123 176M126.333 176.667L126.667 177.333L126.333 176.667M135 178L138 177L135 178M6 177L7 178L6 177M111 177L112 178L111 177M124 177L125 178L124 177M4 178L5 179L4 178M36 178L36 180L38 180L36 178z"/>
<path style="fill:#8295ae; stroke:none;" d="M77 178L79 181L77 178M102 181L109 182L111 179C107.379 177.743 104.68 178.31 102 181z"/>
<path style="fill:#365c86; stroke:none;" d="M125 178L126 179L125 178M3 179L4 180L3 179z"/>
<path style="fill:#8295ae; stroke:none;" d="M70 180L70 181L77 184L77 185L74 185L74 186L83 186L81 181L70 180z"/>
<path style="fill:#d5b29e; stroke:none;" d="M109 179L108 181L109 179z"/>
<path style="fill:#365c86; stroke:none;" d="M126 179L123 183L126 179M1.66667 180.333L2.33333 180.667L1.66667 180.333z"/>
<path style="fill:#8d634b; stroke:none;" d="M71 180L72 181L71 180z"/>
<path style="fill:#d5b29e; stroke:none;" d="M102 181L93 196L92 196L84 188L88 197L82 196L94 202C98.8307 194.486 109.893 190.095 107 180L102 181z"/>
<path style="fill:#8d634b; stroke:none;" d="M109 180L110 181L109 180z"/>
<path style="fill:#8295ae; stroke:none;" d="M125 180L126 181L125 180z"/>
<path style="fill:#365c86; stroke:none;" d="M0 181L1 182L0 181M22 181L25 184L22 181M26 182L26 183L31 182L26 182z"/>
<path style="fill:#8d634b; stroke:none;" d="M68 181L69 182L68 181z"/>
<path style="fill:#2e2f2d; stroke:none;" d="M69 181C60.3391 187.498 42.715 187.754 50 201L75 196L75 195L69 192L76 189L76 188L72 188L69 181z"/>
<path style="fill:#8d634b; stroke:none;" d="M70 181L71 182L70 181M101 181L102 182L101 181z"/>
<path style="fill:#2e2f2d; stroke:none;" d="M147 181L148 182L147 181z"/>
<path style="fill:#365c86; stroke:none;" d="M70.3333 182.667L70.6667 183.333L70.3333 182.667z"/>
<path style="fill:#d5b29e; stroke:none;" d="M71 182L71 185L75 187L77 185L77 184L71 182z"/>
<path style="fill:#8d634b; stroke:none;" d="M100 182L101 183L100 182M108 182L109 183L108 182z"/>
<path style="fill:#2e2f2d; stroke:none;" d="M169 182C168.804 191.515 168.997 205.72 164 214L166 216L163 218L160 194L159 194L160 228L156 229L156 230L170 230C170 216.474 174.209 194.414 169 182z"/>
<path style="fill:#365c86; stroke:none;" d="M39 183L39 184L42 185L39 183z"/>
<path style="fill:#8295ae; stroke:none;" d="M65 183L66 184L65 183M71 183L72 184L71 183M100 183L101 184L100 183M108.333 183.667L108.667 184.333L108.333 183.667z"/>
<path style="fill:#365c86; stroke:none;" d="M27.6667 184.333L28.3333 184.667L27.6667 184.333z"/>
<path style="fill:#8295ae; stroke:none;" d="M64 184L65 185L64 184M99 184L100 185L99 184z"/>
<path style="fill:#365c86; stroke:none;" d="M71 185L72 186L71 185z"/>
<path style="fill:#8295ae; stroke:none;" d="M72 185L73 186L72 185z"/>
<path style="fill:#d5b29e; stroke:none;" d="M77 185L80 187L77 185z"/>
<path style="fill:#8d634b; stroke:none;" d="M80 185L81 186L80 185z"/>
<path style="fill:#365c86; stroke:none;" d="M108 185L109 186L108 185z"/>
<path style="fill:#8295ae; stroke:none;" d="M61 186L62 187L61 186z"/>
<path style="fill:#365c86; stroke:none;" d="M62 186L63 187L62 186M73 186L72 188L74 188L73 186z"/>
<path style="fill:#8d634b; stroke:none;" d="M75 186L78 188L78 187L75 186z"/>
<path style="fill:#8295ae; stroke:none;" d="M82 188L85 187L82 188M87 186L88 187L87 186M33 187L34 188L33 187z"/>
<path style="fill:#365c86; stroke:none;" d="M58 187L59 188L58 187M75 187L76 188L75 187z"/>
<path style="fill:#8295ae; stroke:none;" d="M85 187L87 190L85 187M97 187L98 188L97 187z"/>
<path style="fill:#8d634b; stroke:none;" d="M107 187L108 188L107 187M54 188L55 189L54 188z"/>
<path style="fill:#365c86; stroke:none;" d="M74 188L75 189L74 188M76 188L76 189L79 189L76 188z"/>
<path style="fill:#8295ae; stroke:none;" d="M80 188L81 189L80 188M79 190L79 191L83 192L83 193L71 192L71 193L83 198L82 196L88 197L84 188L79 190M96.3333 188.667L96.6667 189.333L96.3333 188.667M23 189L24 190L23 189M49 189L50 190L49 189z"/>
<path style="fill:#365c86; stroke:none;" d="M50 189L51 190L50 189M67 189L69 191L67 189M70 189L70 190L74 190L70 189M106 189L107 190L106 189z"/>
<path style="fill:#8295ae; stroke:none;" d="M47 190L48 191L47 190M88 190L89 191L88 190M89 191L92 196L93 196L96 190L89 191z"/>
<path style="fill:#8d634b; stroke:none;" d="M105 190L106 191L105 190z"/>
<path style="fill:#8295ae; stroke:none;" d="M42 193L45 193L44 191L42 193z"/>
<path style="fill:#365c86; stroke:none;" d="M69 191L70 192L69 191M73 191L74 192L73 191z"/>
<path style="fill:#8295ae; stroke:none;" d="M104 191L105 192L104 191z"/>
<path style="fill:#365c86; stroke:none;" d="M0 192L1 193L0 192z"/>
<path style="fill:#8295ae; stroke:none;" d="M5.66667 192.333L6.33333 192.667L5.66667 192.333z"/>
<path style="fill:#365c86; stroke:none;" d="M70 192L71 193L70 192M102 192L103 193L102 192M72 193L73 194L72 193M73 194L74 195L73 194z"/>
<path style="fill:#8295ae; stroke:none;" d="M99 194L100 195L99 194M14.3333 195.667L14.6667 196.333L14.3333 195.667z"/>
<path style="fill:#d5b29e; stroke:none;" d="M78 195L79 196L78 195M80 195L81 196L80 195z"/>
<path style="fill:#8d634b; stroke:none;" d="M86 195L87 196L86 195z"/>
<path style="fill:#8295ae; stroke:none;" d="M98 195L99 196L98 195z"/>
<path style="fill:#2e2f2d; stroke:none;" d="M124.333 195.667L124.667 196.333L124.333 195.667M76 196L77 197L76 196z"/>
<path style="fill:#8295ae; stroke:none;" d="M89 196L91 198L89 196M96 197L97 198L96 197M83 198L84 199L83 198M85.6667 199.333L86.3333 199.667L85.6667 199.333M95 199L96 200L95 199z"/>
<path style="fill:#2e2f2d; stroke:none;" d="M124 199L125 200L124 199z"/>
<path style="fill:#8295ae; stroke:none;" d="M7 202L10 202L9 200L7 202M88 200L89 201L88 200M90.6667 201.333L91.3333 201.667L90.6667 201.333M9 203L10 204L9 203z"/>
<path style="fill:#2e2f2d; stroke:none;" d="M93 203L95 205L93 203M91 204L92 205L91 204M91 207L92 208L91 207M93.6667 217.333L94.3333 217.667L93.6667 217.333M147 217L148 218L147 217z"/>
<path style="fill:#365c86; stroke:none;" d="M163.667 220.333L164.333 220.667L163.667 220.333z"/>
<path style="fill:#2e2f2d; stroke:none;" d="M0.333333 222.667L0.666667 223.333L0.333333 222.667M3 225L3 228L4 228L3 225M135.333 227.667L135.667 228.333L135.333 227.667M5.33333 228.667L5.66667 229.333L5.33333 228.667z"/>
</svg>
