<?xml version="1.0" standalone="yes"?>
<svg xmlns="http://www.w3.org/2000/svg" width="400" height="400">
<path style="fill:#2f3a38; stroke:none;" d="M0 0L0 400L14 400C18.1831 377.481 11.3226 346.26 26.5293 327.015C35.6403 315.484 53.9753 307.829 67 301.681C86.1805 292.626 110.985 281.94 126.541 267.366C132.456 261.824 136.238 252.871 140.4 246C143.449 240.968 148.181 236.833 149.674 230.999C152.216 221.061 142.224 206.868 142 196C128.676 193.578 131.493 169.719 129.335 159C128.409 154.403 126.295 147.325 129.603 143.191C132.652 139.383 145.306 142.498 150 143L151 139L143 139L143 138C144.854 135.786 141.551 122.212 141.572 118C141.621 107.953 147.13 95.3566 152.442 87C160.94 73.6331 183.889 56.9643 200 55.1288C224.738 52.3106 255.638 72.3458 266.627 94C271.687 103.972 273.915 115.856 274.201 126.961C274.373 133.632 269.995 139.686 277 144C282.757 132.698 287.549 147.887 286.816 154C285.73 163.049 282.33 172.054 280.514 181C278.731 189.785 279.002 198.865 274.677 207C268.225 219.135 254.202 229.695 253.186 244C252.259 257.048 258.724 272.999 260.919 286C263.011 298.388 263.402 310.69 264.883 323C267.658 346.052 274 368.558 274 392L270 389L274 400L400 400L400 0L0 0z"/>
<path style="fill:#586e99; stroke:none;" d="M296.667 27.3333L297.333 27.6667L296.667 27.3333M312 31L312 35C317.227 35.21 321.161 36.1393 325 32L312 31M32 58L35 62L35 72L62.7145 72.5332L82 65.4252L103 68.5015L120 65L144 56L145 56L147 58L152 54L144 60L144 61L146 62C130.611 69.5175 119.536 101.664 128 116L129 116C129 111.882 127.758 105.19 131 106L132 101C138.668 101.312 139.499 95.7854 142.559 91.0038C147.685 82.9967 153.031 74.6587 161 70L161 69L152 72L152 71L170 65L182 58C184.617 46.7172 203.452 53.2007 208 47L239 46C235.235 40.6491 228.495 43.0859 223 43.3904C216.962 43.7251 197.447 43.0977 193 40L192 40C186.515 45.1606 172.106 46.6509 165 45L168 34C155.476 31.2755 144.188 40.1224 132 41.9954C97.9229 47.2323 65.5521 50.3082 32 58M253 40L256 38L253 40M169.333 40.6667L169.667 41.3333L169.333 40.6667z"/>
<path style="fill:#856c60; stroke:none;" d="M191 43L191 44L194 44L194 45L191 45L191 46L196 43L191 43z"/>
<path style="fill:#8490b2; stroke:none;" d="M196 43L197 44L196 43z"/>
<path style="fill:#856c60; stroke:none;" d="M197 43L197 44L204 45L197 43z"/>
<path style="fill:#2f3a38; stroke:none;" d="M163 44L164 45L163 44z"/>
<path style="fill:#856c60; stroke:none;" d="M186 44L187 45L186 44z"/>
<path style="fill:#8490b2; stroke:none;" d="M180 48C174.604 47.5526 170.83 50.4089 165.996 52.4491C152.283 58.2372 136.079 67.0306 133 83L138 82L140 77L137 78L141 75L141 72L142 72L161 57L194 45C189.671 43.2004 182.637 43.9163 180 48M200 44L201 45L200 44z"/>
<path style="fill:#856c60; stroke:none;" d="M189 45L190 46L189 45z"/>
<path style="fill:#2f3a38; stroke:none;" d="M230.667 45.3333L231.333 45.6667L230.667 45.3333M159 48L160 51L152 54C157.861 56.2364 164.537 53.0826 168 48L159 48z"/>
<path style="fill:#856c60; stroke:none;" d="M184 47L185 48L184 47M188.667 47.3333L189.333 47.6667L188.667 47.3333z"/>
<path style="fill:#2f3a38; stroke:none;" d="M223 47L223 48L227 48L223 47z"/>
<path style="fill:#586e99; stroke:none;" d="M163 48L164 49L163 48z"/>
<path style="fill:#856c60; stroke:none;" d="M173 48L174 49L173 48M182 48L183 49L182 48M185.667 48.3333L186.333 48.6667L185.667 48.3333z"/>
<path style="fill:#586e99; stroke:none;" d="M233.667 48.3333L234.333 48.6667L233.667 48.3333z"/>
<path style="fill:#856c60; stroke:none;" d="M171 49L170 51L172 51L171 49M175 49L176 50L175 49M181 49L182 50L181 49M178 50L178 51L181 51L178 50M168 51L169 52L168 51M168 54L168 55L184 54L184 53L177 54L177 51L168 54z"/>
<path style="fill:#586e99; stroke:none;" d="M256 53L256 55L258 55L258 53L256 53M0.333333 54.6667L0.666667 55.3333L0.333333 54.6667M208 54L195 56L195 57L209 55L208 54M333 56C339.214 69.3077 358.722 72.569 367 60C354.439 52.076 345.557 58.6433 333 56z"/>
<path style="fill:#856c60; stroke:none;" d="M161 57L162 60L168 59L168 55L161 57z"/>
<path style="fill:#586e99; stroke:none;" d="M186.667 55.3333L187.333 55.6667L186.667 55.3333z"/>
<path style="fill:#856c60; stroke:none;" d="M208 55L208 56L214 56L208 55z"/>
<path style="fill:#586e99; stroke:none;" d="M214.667 55.3333L215.333 55.6667L214.667 55.3333M16 56L16 57L20 57L16 56z"/>
<path style="fill:#856c60; stroke:none;" d="M171 59L171 60L180 57L171 59z"/>
<path style="fill:#586e99; stroke:none;" d="M183 56L184 57L183 56z"/>
<path style="fill:#856c60; stroke:none;" d="M168 73C180.419 66.3901 190.225 57.3066 205 57C193.945 52.3628 174.756 64.8451 168 73z"/>
<path style="fill:#8490b2; stroke:none;" d="M174 69L174 70L190 61.1335L219 58C204.537 50.311 185.847 61.5702 174 69z"/>
<path style="fill:#856c60; stroke:none;" d="M215 56L215 57L224 59L215 56z"/>
<path style="fill:#586e99; stroke:none;" d="M219 56L220 57L219 56z"/>
<path style="fill:#2f3a38; stroke:none;" d="M153.667 57.3333L154.333 57.6667L153.667 57.3333z"/>
<path style="fill:#586e99; stroke:none;" d="M190 57L190 58L194 58L190 57z"/>
<path style="fill:#cabbbe; stroke:none;" d="M161 137L165 137L164 139C167.686 139 188.23 140.354 188.94 136.736C190.462 128.976 170.417 133.143 167 133C174.757 121.743 188.493 120.935 201 127.278C205.023 129.318 208.015 133.868 213 133.833C216.764 133.807 219.591 130.446 223 129.278C232.532 126.012 241.16 124.099 251 122.778C257.526 121.902 267.248 135.78 268 132L269 132L267 136C272.506 138.031 271.156 124.196 270.94 121C270.073 108.161 265.47 90.7068 256.407 81.2593C245.872 70.2762 227.441 58.3839 212 57.1389C187.473 55.1612 154.531 76.169 148.454 100C146.264 108.587 142.347 124.413 145.477 132.995C147.058 137.333 160.172 143.581 161 137z"/>
<path style="fill:#2f3a38; stroke:none;" d="M151 58L152 59L151 58z"/>
<path style="fill:#586e99; stroke:none;" d="M188 58L189 59L188 58z"/>
<path style="fill:#8490b2; stroke:none;" d="M220.667 58.3333L221.333 58.6667L220.667 58.3333z"/>
<path style="fill:#586e99; stroke:none;" d="M249 60L255 69C268.682 69.6434 275.699 87.4263 281 97C283.253 89.1593 278.282 76.8067 271 73L271 67L268 68L262 65L263 69L255 64L252 60L259 61C255.659 58.2685 252.826 58.1255 249 60M187 59L188 60L187 59z"/>
<path style="fill:#8490b2; stroke:none;" d="M223 59L223 60L228 62L228 61L223 59z"/>
<path style="fill:#856c60; stroke:none;" d="M225 59L226 60L225 59M158.667 60.3333L159.333 60.6667L158.667 60.3333M169.667 60.3333L170.333 60.6667L169.667 60.3333z"/>
<path style="fill:#586e99; stroke:none;" d="M185 60L186 61L185 60z"/>
<path style="fill:#856c60; stroke:none;" d="M227 60L228 61L227 60z"/>
<path style="fill:#8490b2; stroke:none;" d="M252 60L253 65L263 69L264 64L252 60z"/>
<path style="fill:#856c60; stroke:none;" d="M155 64L156 64L158 62C155.86 60.8822 155.473 61.7492 155 64z"/>
<path style="fill:#586e99; stroke:none;" d="M183 61L184 62L183 61z"/>
<path style="fill:#856c60; stroke:none;" d="M228 61L228 62L231 63L228 61z"/>
<path style="fill:#cabbbe; stroke:none;" d="M257 61L257 63L259 63L257 61z"/>
<path style="fill:#586e99; stroke:none;" d="M260 61L261 62L260 61M182 62L183 63L182 62z"/>
<path style="fill:#8490b2; stroke:none;" d="M229 62L230 63L229 62z"/>
<path style="fill:#586e99; stroke:none;" d="M231 62L232 63L231 62z"/>
<path style="fill:#cabbbe; stroke:none;" d="M255 62L256 63L255 62z"/>
<path style="fill:#586e99; stroke:none;" d="M261 62L263 64L263 62L261 62z"/>
<path style="fill:#856c60; stroke:none;" d="M152 63L153 64L152 63z"/>
<path style="fill:#8490b2; stroke:none;" d="M231 63L233 65L231 63z"/>
<path style="fill:#856c60; stroke:none;" d="M232 63L233 64L232 63z"/>
<path style="fill:#2f3a38; stroke:none;" d="M154 68L162 64L154 68z"/>
<path style="fill:#586e99; stroke:none;" d="M179 64L180 65L179 64z"/>
<path style="fill:#856c60; stroke:none;" d="M233 64L233 65L261 85C254.255 75.1424 244.184 68.0701 233 64z"/>
<path style="fill:#8490b2; stroke:none;" d="M152 65L153 66L152 65M234 65L235 66L234 65z"/>
<path style="fill:#856c60; stroke:none;" d="M254 65L255 66L254 65z"/>
<path style="fill:#8490b2; stroke:none;" d="M264 65L265 66L264 65z"/>
<path style="fill:#856c60; stroke:none;" d="M142 66L143 67L142 66z"/>
<path style="fill:#586e99; stroke:none;" d="M176 66L177 67L176 66z"/>
<path style="fill:#8490b2; stroke:none;" d="M235 66L236 67L235 66z"/>
<path style="fill:#586e99; stroke:none;" d="M174 67L175 68L174 67z"/>
<path style="fill:#8490b2; stroke:none;" d="M237 67L238 68L237 67M265 67L264 69L265 67z"/>
<path style="fill:#586e99; stroke:none;" d="M172 68L173 69L172 68z"/>
<path style="fill:#8490b2; stroke:none;" d="M238.667 68.3333L239.333 68.6667L238.667 68.3333M267.333 68.6667L267.667 69.3333L267.333 68.6667z"/>
<path style="fill:#586e99; stroke:none;" d="M171 69L172 70L171 69z"/>
<path style="fill:#8490b2; stroke:none;" d="M240.667 69.3333L241.333 69.6667L240.667 69.3333z"/>
<path style="fill:#2f3a38; stroke:none;" d="M151 70L152 71L151 70z"/>
<path style="fill:#8490b2; stroke:none;" d="M172 70L173 71L172 70M242 70L243 71L242 70M265 70L266 71L265 70M269 70L270 71L269 70z"/>
<path style="fill:#2f3a38; stroke:none;" d="M144 75L150 72L144 75z"/>
<path style="fill:#586e99; stroke:none;" d="M168 71L169 72L168 71z"/>
<path style="fill:#8490b2; stroke:none;" d="M170.667 71.3333L171.333 71.6667L170.667 71.3333M244 71L245 72L244 71z"/>
<path style="fill:#856c60; stroke:none;" d="M141.333 72.6667L141.667 73.3333L141.333 72.6667M143 72L144 73L143 72z"/>
<path style="fill:#586e99; stroke:none;" d="M163 74L163 75L168 73L163 74z"/>
<path style="fill:#8490b2; stroke:none;" d="M169 72L170 73L169 72M245 72L248 74L245 72z"/>
<path style="fill:#856c60; stroke:none;" d="M166 73L167 74L166 73z"/>
<path style="fill:#8490b2; stroke:none;" d="M167.667 73.3333L168.333 73.6667L167.667 73.3333z"/>
<path style="fill:#856c60; stroke:none;" d="M136 74L137 75L136 74z"/>
<path style="fill:#2f3a38; stroke:none;" d="M149 74L148 76L149 74z"/>
<path style="fill:#856c60; stroke:none;" d="M164 74L155 83L165 75L164 74z"/>
<path style="fill:#8490b2; stroke:none;" d="M165.667 74.3333L166.333 74.6667L165.667 74.3333M248.667 74.3333L249.333 74.6667L248.667 74.3333z"/>
<path style="fill:#856c60; stroke:none;" d="M135.333 75.6667L135.667 76.3333L135.333 75.6667z"/>
<path style="fill:#8490b2; stroke:none;" d="M164 75L165 76L164 75M250 75L251 76L250 75z"/>
<path style="fill:#586e99; stroke:none;" d="M252 75L253 76L252 75z"/>
<path style="fill:#8490b2; stroke:none;" d="M161 78L164 76L161 78M251 76L252 77L251 76M252 77L253 78L252 77z"/>
<path style="fill:#586e99; stroke:none;" d="M158 78L159 79L158 78z"/>
<path style="fill:#8490b2; stroke:none;" d="M160 78L161 79L160 78M253 78L254 79L253 78z"/>
<path style="fill:#2f3a38; stroke:none;" d="M142 88L151 80C146.59 79.9066 143.874 84.3899 142 88z"/>
<path style="fill:#8490b2; stroke:none;" d="M159 79L160 80L159 79M254 79L255 80L254 79z"/>
<path style="fill:#586e99; stroke:none;" d="M256 79L257 80L256 79z"/>
<path style="fill:#8490b2; stroke:none;" d="M146 80L147 81L146 80M158 80L159 81L158 80z"/>
<path style="fill:#586e99; stroke:none;" d="M257 80L258 81L257 80M266.667 80.3333L267.333 80.6667L266.667 80.3333z"/>
<path style="fill:#8490b2; stroke:none;" d="M157 81L158 82L157 81M256 81L257 82L256 81z"/>
<path style="fill:#856c60; stroke:none;" d="M134 82L135 83L134 82z"/>
<path style="fill:#8490b2; stroke:none;" d="M143 82L142 85L143 82M156 82L157 83L156 82M257 82L258 83L257 82z"/>
<path style="fill:#586e99; stroke:none;" d="M268 82L269 83L268 82z"/>
<path style="fill:#8490b2; stroke:none;" d="M140 83L135 84L133 91L134 91L137 86L140 83z"/>
<path style="fill:#586e99; stroke:none;" d="M154 83L155 84L154 83z"/>
<path style="fill:#8490b2; stroke:none;" d="M155 83C148.568 95.2237 144.357 108.017 144.015 122C143.857 128.42 143.117 134.173 149 138C142.147 127.105 145.448 109.87 149.359 98C150.906 93.304 155.462 87.8712 155 83M258 83L259 84L258 83z"/>
<path style="fill:#586e99; stroke:none;" d="M143 84L144 85L143 84z"/>
<path style="fill:#856c60; stroke:none;" d="M154 84L155 85L154 84z"/>
<path style="fill:#8490b2; stroke:none;" d="M259 84L260 85L259 84z"/>
<path style="fill:#586e99; stroke:none;" d="M153 85L154 86L153 85z"/>
<path style="fill:#8490b2; stroke:none;" d="M260 85L261 86L260 85z"/>
<path style="fill:#586e99; stroke:none;" d="M261 85L262 86L261 85z"/>
<path style="fill:#8490b2; stroke:none;" d="M141 86L142 87L141 86z"/>
<path style="fill:#586e99; stroke:none;" d="M152 86L153 87L152 86z"/>
<path style="fill:#856c60; stroke:none;" d="M261 86L272 118L273 118C272.489 108.022 268.797 92.684 261 86M152 87L153 88L152 87z"/>
<path style="fill:#8490b2; stroke:none;" d="M261 87L262 88L261 87z"/>
<path style="fill:#856c60; stroke:none;" d="M132 88L133 89L132 88z"/>
<path style="fill:#586e99; stroke:none;" d="M151 88L152 89L151 88z"/>
<path style="fill:#8490b2; stroke:none;" d="M262.333 88.6667L262.667 89.3333L262.333 88.6667z"/>
<path style="fill:#2f3a38; stroke:none;" d="M141 89L142 90L141 89z"/>
<path style="fill:#856c60; stroke:none;" d="M151 89L152 90L151 89M150 90L149 94L150 94L150 90z"/>
<path style="fill:#8490b2; stroke:none;" d="M263.333 90.6667L263.667 91.3333L263.333 90.6667z"/>
<path style="fill:#856c60; stroke:none;" d="M128 91L129 92L128 91z"/>
<path style="fill:#2f3a38; stroke:none;" d="M140 91L136 99L137 99L140 91z"/>
<path style="fill:#586e99; stroke:none;" d="M149 91L150 92L149 91M265 91L266 92L265 91z"/>
<path style="fill:#8490b2; stroke:none;" d="M128 92L129 93L128 92M264.333 92.6667L264.667 93.3333L264.333 92.6667z"/>
<path style="fill:#856c60; stroke:none;" d="M128 93L129 94L128 93z"/>
<path style="fill:#586e99; stroke:none;" d="M142 93L143 94L142 93M266 93L267 94L266 93M148 94L149 95L148 94z"/>
<path style="fill:#8490b2; stroke:none;" d="M265.333 94.6667L265.667 95.3333L265.333 94.6667z"/>
<path style="fill:#856c60; stroke:none;" d="M148.333 95.6667L148.667 96.3333L148.333 95.6667z"/>
<path style="fill:#586e99; stroke:none;" d="M267 95L268 96L267 95z"/>
<path style="fill:#2f3a38; stroke:none;" d="M130 96L130 97L134 97L134 96L130 96z"/>
<path style="fill:#8490b2; stroke:none;" d="M135 96L136 97L135 96z"/>
<path style="fill:#586e99; stroke:none;" d="M147 96L146 101L147 101L147 96z"/>
<path style="fill:#8490b2; stroke:none;" d="M266 96L270 137C278.295 131.018 270.554 103.247 266 96M127 98L128 99L127 98z"/>
<path style="fill:#856c60; stroke:none;" d="M147.333 98.6667L147.667 99.3333L147.333 98.6667z"/>
<path style="fill:#586e99; stroke:none;" d="M268 98L269 99L268 98z"/>
<path style="fill:#2f3a38; stroke:none;" d="M131.333 99.6667L131.667 100.333L131.333 99.6667M134 100L135 101L134 100z"/>
<path style="fill:#586e99; stroke:none;" d="M269.333 100.667L269.667 101.333L269.333 100.667z"/>
<path style="fill:#856c60; stroke:none;" d="M146 101C144.164 113.43 139.954 123.21 144 136L145 136L146 101z"/>
<path style="fill:#586e99; stroke:none;" d="M145 102L145 105L146 105L145 102M270 103L270 106L271 106L270 103M144 106L142 113L143 113L144 106M271 107L271 111L272 111L271 107M272 112L273 113L272 112M141 116L141 120L142 120L141 116M273.333 117.667L273.667 118.333L273.333 117.667z"/>
<path style="fill:#856c60; stroke:none;" d="M273 119L273 135L274 135L273 119z"/>
<path style="fill:#8490b2; stroke:none;" d="M167 133C174.038 133.628 187.919 127.96 189 139L200 139C193.81 131.112 181.525 129.409 172 129L172 128L176 125C189.127 125 202.005 126.096 209 139L205 140L205 141L221 141C220.672 139.032 219.652 136.568 220 135C220.285 133.717 223.83 132.585 225 132C231.245 128.878 241.136 121.068 249 125C252.037 126.519 249.307 126.845 252 129C244.132 130.466 236.143 131.189 231 138L239 138C240.159 129.328 252.625 131.345 257 136L248 136L248 137C254.159 137 267.632 139.88 269 132L268 132L268 135C263.773 130.802 261.943 125.964 256 123.431C246.574 119.414 230.927 125.977 222 129.405C218.771 130.645 215.646 133.572 212.001 133.137C207.671 132.621 204.782 128.659 200.961 126.991C189.222 121.868 173.205 120.172 167 133z"/>
<path style="fill:#586e99; stroke:none;" d="M142 124L142 127L143 127L142 124z"/>
<path style="fill:#856c60; stroke:none;" d="M176 125L172 128L172 129C182.268 129.811 192.191 131.991 200 139L167 139L167 141L208 142L204 155L209 156L210 144L221 144C221.001 149.136 220.28 153.933 225 157L226 151L223 142L252 138L252 137L231 138C237.344 132.081 243.879 130.957 252 129L251 126C240.821 122.992 218.77 127.152 221 141L205 141L205 140L209 139C204.074 125.133 188.195 125 176 125z"/>
<path style="fill:#586e99; stroke:none;" d="M244 126L245 127L244 126M274.333 126.667L274.667 127.333L274.333 126.667M141 128L141 131L142 131L141 128z"/>
<path style="fill:#8490b2; stroke:none;" d="M268.667 128.333L269.333 128.667L268.667 128.333M167 129L168 130L167 129z"/>
<path style="fill:#586e99; stroke:none;" d="M274 130L275 131L274 130M142 131L142 134L143 134L142 131z"/>
<path style="fill:#cabbbe; stroke:none;" d="M238 137L257 136C252.756 129.306 242.026 130.644 238 137z"/>
<path style="fill:#856c60; stroke:none;" d="M260 131L261 132L260 131z"/>
<path style="fill:#586e99; stroke:none;" d="M143 134L144 135L143 134M273 135L274 136L273 135z"/>
<path style="fill:#856c60; stroke:none;" d="M145 136L150 141L154 140L154 139L145 136M271 136L272 137L271 136z"/>
<path style="fill:#586e99; stroke:none;" d="M145 137L143 138L143 139L145 137z"/>
<path style="fill:#8490b2; stroke:none;" d="M161 137L161 140L167 140L167 139L165 137L161 137z"/>
<path style="fill:#cabbbe; stroke:none;" d="M212.667 137.333L213.333 137.667L212.667 137.333z"/>
<path style="fill:#586e99; stroke:none;" d="M252 137L252 138L259 138L252 137z"/>
<path style="fill:#2f3a38; stroke:none;" d="M259.667 137.333L260.333 137.667L259.667 137.333z"/>
<path style="fill:#586e99; stroke:none;" d="M261 137L261 138L265 141L272 139L269 140L270 137L261 137z"/>
<path style="fill:#856c60; stroke:none;" d="M268 137L269 138L268 137z"/>
<path style="fill:#2f3a38; stroke:none;" d="M270 137L269 140L270 137z"/>
<path style="fill:#586e99; stroke:none;" d="M271 137L272 138L271 137M140.667 138.333L141.333 138.667L140.667 138.333z"/>
<path style="fill:#8490b2; stroke:none;" d="M151.667 138.333L152.333 138.667L151.667 138.333M178 138L178 139L184 139L178 138z"/>
<path style="fill:#cabbbe; stroke:none;" d="M191 138L192 139L191 138z"/>
<path style="fill:#8490b2; stroke:none;" d="M244 138L244 139L248 139L247 141C253.908 141.001 258.594 141.317 264 146L248 146L248 147L254 146L254 147L243 150L240 148L240 147L247 147L247 146L225 144L225 143L242 140L242 139L235 141L223 142C223 145.644 221.783 150.096 226 151L225 157C220.961 153.145 221.004 149.339 221 144L215 143L220 148L216 148C219.676 155.128 223.303 163.54 228.718 169.412C230.674 171.533 234.357 171.312 235.673 174.184C237.001 177.083 234.104 178.219 232 179L232 180C236.183 179.546 240.111 178.423 241 174C255.063 177.303 267.792 186.345 264 201L268 199L265 209L273 209C279.383 196.507 282.395 177.046 283 163L280 163L280 172L276 172L276 178L275 178L273 176C263.845 184.792 241.194 175.635 237 165L240 165L239 167L242 166L242 165L226 161L226 158L229 157C231.862 165.15 240.851 163 248 163L246 160L253 159C252.871 155.395 256.828 153.668 260 153L260 152L257 151L263 150L262 147C266.321 145.551 266.29 140.797 261.881 138.919C257.012 136.845 249.22 138.001 244 138z"/>
<path style="fill:#cabbbe; stroke:none;" d="M254.667 138.333L255.333 138.667L254.667 138.333M257 138L258 139L257 138z"/>
<path style="fill:#856c60; stroke:none;" d="M261.667 138.333L262.333 138.667L261.667 138.333z"/>
<path style="fill:#2f3a38; stroke:none;" d="M267 138L268 139L267 138z"/>
<path style="fill:#856c60; stroke:none;" d="M271 138L272 139L271 138z"/>
<path style="fill:#586e99; stroke:none;" d="M147 139L148 140L147 139z"/>
<path style="fill:#8490b2; stroke:none;" d="M154 139L150 143L150 144L157 140L154 139z"/>
<path style="fill:#cabbbe; stroke:none;" d="M239 139L240 140L239 139M242 139L242 140L248 140L242 139z"/>
<path style="fill:#856c60; stroke:none;" d="M264 139L265 140L264 139z"/>
<path style="fill:#586e99; stroke:none;" d="M279 139L280 140L279 139z"/>
<path style="fill:#856c60; stroke:none;" d="M280 139L280 140L283 140L280 139z"/>
<path style="fill:#586e99; stroke:none;" d="M131 140L132 141L131 140z"/>
<path style="fill:#856c60; stroke:none;" d="M132.667 140.333L133.333 140.667L132.667 140.333z"/>
<path style="fill:#cabbbe; stroke:none;" d="M151 142L155 141L151 142z"/>
<path style="fill:#856c60; stroke:none;" d="M154 144L161 142L162 142L162 148L163 148L166 140C161.199 140.003 156.659 139.448 154 144z"/>
<path style="fill:#586e99; stroke:none;" d="M166 140L167 141L166 140z"/>
<path style="fill:#8490b2; stroke:none;" d="M172 140L172 141L183 142L172 140z"/>
<path style="fill:#cabbbe; stroke:none;" d="M180 140L180 141L184 141L180 140z"/>
<path style="fill:#8490b2; stroke:none;" d="M184 140L184 141L202 144C196.655 151.164 179.67 149.681 171 153C178.31 160.599 185.657 159.443 195 157L184 161L184 165L206 156L205 159L215 148L212 147L214 144L210 144L209 156L204 155L208 142L184 140z"/>
<path style="fill:#cabbbe; stroke:none;" d="M234 140L235 141L234 140z"/>
<path style="fill:#856c60; stroke:none;" d="M241 140L241 141L247 141L241 140z"/>
<path style="fill:#2f3a38; stroke:none;" d="M266 140L266 145L267 145L266 140z"/>
<path style="fill:#856c60; stroke:none;" d="M272 140L270 141L270 142L272 140z"/>
<path style="fill:#586e99; stroke:none;" d="M273 140L274 141L273 140z"/>
<path style="fill:#856c60; stroke:none;" d="M278 140L275 144L275 145L275 146L277 146L281 164L283 163L282 172L283 172L287 154L286 154L286 156L285 156L285 150L286 150L286 152L287 152L285 140L284 140L285 144L278 145L278 140z"/>
<path style="fill:#8490b2; stroke:none;" d="M279 140L278 145L281 144L281 140L279 140z"/>
<path style="fill:#cabbbe; stroke:none;" d="M280 143L284 141L280 143z"/>
<path style="fill:#8490b2; stroke:none;" d="M283 140L284 141L283 140M130 141L129 143L130 141z"/>
<path style="fill:#cabbbe; stroke:none;" d="M129 148L130 148L136 146L137 145C133.472 139.272 129.433 142.324 129 148z"/>
<path style="fill:#8490b2; stroke:none;" d="M135 141L136 142L135 141M150 141L151 142L150 141z"/>
<path style="fill:#2f3a38; stroke:none;" d="M157 141L157 143L160 143L160 141L157 141z"/>
<path style="fill:#8490b2; stroke:none;" d="M166.667 141.333L167.333 141.667L166.667 141.333z"/>
<path style="fill:#cabbbe; stroke:none;" d="M164 147L177 142C171.667 139.763 165.321 140.893 164 147z"/>
<path style="fill:#856c60; stroke:none;" d="M183 141L183 142L186 144L197 147L197 148L190 145L189 145L188 145L182 147L182 148C188.793 148 198.427 151.098 202 144L183 141M225 143L225 144C230.966 147.662 234.208 147.317 241 146L241 145L235 146L240 142L225 143z"/>
<path style="fill:#2f3a38; stroke:none;" d="M235 146L248 143L249 143L250 143L261 145C254.158 140.478 240.021 137.822 235 146z"/>
<path style="fill:#856c60; stroke:none;" d="M252 141L252 142L261 144L261 145L253 144L253 145L264 146C260.677 141.914 257.13 141.11 252 141M265.333 141.667L265.667 142.333L265.333 141.667M267.333 141.667L267.667 142.333L267.333 141.667z"/>
<path style="fill:#8490b2; stroke:none;" d="M268 141L269 144L267 143L267 146L271 147L272 142L274 152L277 166C281.069 159.94 277.551 152.404 277 146L274 141L268 141M282 142L282 143L285 144L285 141L282 142M136 142L137 145L136 146L133 145L133 146L135 152L136 152L137 148L141 150L144 143L139 147L136 142z"/>
<path style="fill:#856c60; stroke:none;" d="M137 142L139 147L142 143L137 142z"/>
<path style="fill:#586e99; stroke:none;" d="M138.667 142.333L139.333 142.667L138.667 142.333M145 142L145 143L148 143L145 142z"/>
<path style="fill:#856c60; stroke:none;" d="M150.667 142.333L151.333 142.667L150.667 142.333z"/>
<path style="fill:#2f3a38; stroke:none;" d="M155 142L156 143L155 142z"/>
<path style="fill:#586e99; stroke:none;" d="M156 142L157 143L156 142z"/>
<path style="fill:#8490b2; stroke:none;" d="M161 142L161 147L162 147L161 142M164.333 142.667L164.667 143.333L164.333 142.667M162 148L162 149L176 143C170.38 140.67 166.315 144.763 162 148z"/>
<path style="fill:#856c60; stroke:none;" d="M165 148L168 146L180 147L180 146L169 146L169 145L181 143C175.398 140.814 168.566 143.501 165 148z"/>
<path style="fill:#2f3a38; stroke:none;" d="M169 145L169 146L184 145L184 146L181 146L181 147L191 145L197 148L197 147C193.214 144.401 190.577 142.793 186 144C182.616 140.187 173.471 143.959 169 145M214 142L215 143L214 142z"/>
<path style="fill:#cabbbe; stroke:none;" d="M268.333 142.667L268.667 143.333L268.333 142.667M272 142L271 147L262 147L263 150L257 151L260 152L260 153C256.305 153.751 253.46 155.038 253 159L246 160L248 163C240.471 163 232.988 164.622 229 157L226 158L226 161L242 165L242 166L239 167L237 165C239.12 175.226 266.166 186.421 273 176L275 178L276 178L276 172L280 172L279 154L277 166L274 152L272 142z"/>
<path style="fill:#856c60; stroke:none;" d="M274 142L275 143L274 142M128 143L129 144L128 143z"/>
<path style="fill:#586e99; stroke:none;" d="M140 143L141 144L140 143z"/>
<path style="fill:#cabbbe; stroke:none;" d="M141 150L137 148L131 160L130 150L129 150C129.224 160.806 130.312 180.991 134.603 190.852C136.116 194.327 140.678 193.688 142.258 197.148C145.827 204.959 148.141 217.394 150.455 225.91C152.435 233.195 144.354 239.248 148.318 247C156.916 263.815 175.428 277.29 187.192 292C203.498 312.391 215.435 335.836 229 358L230 358C224.793 344.481 226.323 324.957 215 315L216 320L215 320L213 315L205 313L220 290L224 288L222 289L222 288L232 286C227.195 279.44 215.312 274.183 208 270.681C196.298 265.076 183.95 258.536 173 251.564C166.472 247.407 155.689 240.573 156 232L153 225L155 226L150 212L151 212L152 215L153 215L152 210L156 211C159.156 204.147 154.685 197.541 160.421 191.263C166.134 185.009 180.35 185.619 182 176L192 175L189 182L190 183L192 183L193 176C201.85 184.086 213.597 180.188 224.83 179.884C228.044 179.797 236.03 180.567 236.454 175.819C236.85 171.376 231.021 171.487 228.87 168.971C223.68 162.898 220.634 154.592 216 148L220 148C217.8 144.524 215.002 144.283 212 147L215 148L205 159L206 156L184 165L184 161C188.416 160.908 192.328 160.812 195 157C184.813 158.981 179.7 159.37 171 153L187 150L187 148C180.225 147.86 172.808 145.43 167 150L162 149L161 144C153.605 143.999 142.547 140.092 141 150z"/>
<path style="fill:#856c60; stroke:none;" d="M202.667 143.333L203.333 143.667L202.667 143.333z"/>
<path style="fill:#586e99; stroke:none;" d="M248 143L248 145L250 145L248 143z"/>
<path style="fill:#856c60; stroke:none;" d="M249 143L250 144L249 143z"/>
<path style="fill:#cabbbe; stroke:none;" d="M264.333 143.667L264.667 144.333L264.333 143.667z"/>
<path style="fill:#8490b2; stroke:none;" d="M128 144L128 147L129 147L128 144z"/>
<path style="fill:#856c60; stroke:none;" d="M267 144L268 145L267 144z"/>
<path style="fill:#cabbbe; stroke:none;" d="M270 144L271 145L270 144z"/>
<path style="fill:#8490b2; stroke:none;" d="M285 144L286 145L285 144M131 145L132 146L131 145z"/>
<path style="fill:#856c60; stroke:none;" d="M131 158C140.756 151.323 129.149 140.879 130.29 151.999C130.496 154.01 130.841 155.981 131 158z"/>
<path style="fill:#8490b2; stroke:none;" d="M159 145L160 146L159 145z"/>
<path style="fill:#586e99; stroke:none;" d="M180 147L184 146L180 147M190 145L191 146L190 145z"/>
<path style="fill:#2f3a38; stroke:none;" d="M232 145L233 146L232 145z"/>
<path style="fill:#586e99; stroke:none;" d="M241 145L241 146L246 146L241 145z"/>
<path style="fill:#856c60; stroke:none;" d="M246 145L246 146L249 146L246 145M266 145L267 146L266 145z"/>
<path style="fill:#8490b2; stroke:none;" d="M277 145L278 146L277 145z"/>
<path style="fill:#2f3a38; stroke:none;" d="M168 146L169 147L168 146z"/>
<path style="fill:#cabbbe; stroke:none;" d="M224.667 146.333L225.333 146.667L224.667 146.333M240 147L240 148L243 150L254 147L240 147z"/>
<path style="fill:#2f3a38; stroke:none;" d="M281 146L282 147L281 146z"/>
<path style="fill:#856c60; stroke:none;" d="M128 147L128 156L129 156L128 147z"/>
<path style="fill:#8490b2; stroke:none;" d="M168 147L168 148L173 148L168 147M180.667 147.333L181.333 147.667L180.667 147.333z"/>
<path style="fill:#2f3a38; stroke:none;" d="M279 147L280 148L279 147z"/>
<path style="fill:#8490b2; stroke:none;" d="M129.333 148.667L129.667 149.333L129.333 148.667M166 148L166 150L168 148L166 148z"/>
<path style="fill:#cabbbe; stroke:none;" d="M252 148L253 150L254 150L255 148L252 148z"/>
<path style="fill:#8490b2; stroke:none;" d="M266 148L267 152L269 150L272 153L266 148M270 148L271 149L270 148z"/>
<path style="fill:#cabbbe; stroke:none;" d="M189.667 149.333L190.333 149.667L189.667 149.333z"/>
<path style="fill:#856c60; stroke:none;" d="M232 150C236.127 157.938 247.414 157.907 254 153L236 149L232 150z"/>
<path style="fill:#8490b2; stroke:none;" d="M285 150L285 156L286 156L285 150z"/>
<path style="fill:#856c60; stroke:none;" d="M175 155C182.649 159.004 192.375 157.939 198 151L175 155z"/>
<path style="fill:#8490b2; stroke:none;" d="M235 151L236 152L235 151z"/>
<path style="fill:#2f3a38; stroke:none;" d="M207 152L207 155L208 155L207 152M223 152L224 153L223 152z"/>
<path style="fill:#cabbbe; stroke:none;" d="M285 152L286 153L285 152z"/>
<path style="fill:#8490b2; stroke:none;" d="M130 153L131 154L130 153z"/>
<path style="fill:#cabbbe; stroke:none;" d="M229 153L230 157L231 157L229 153z"/>
<path style="fill:#8490b2; stroke:none;" d="M261 153L264 156L261 153z"/>
<path style="fill:#cabbbe; stroke:none;" d="M200 154L201 155L200 154z"/>
<path style="fill:#8490b2; stroke:none;" d="M140 155L138 160L142 159L142 155L140 155M266 155L265 156L268 158L266 155M280.333 155.667L280.667 156.333L280.333 155.667M129.333 156.667L129.667 157.333L129.333 156.667M133 156L134 157L133 156z"/>
<path style="fill:#cabbbe; stroke:none;" d="M195 156L196 157L195 156z"/>
<path style="fill:#8490b2; stroke:none;" d="M258 156L261 158L261 157L258 156M162 157L163 158L162 157z"/>
<path style="fill:#cabbbe; stroke:none;" d="M250 157L251 158L250 157z"/>
<path style="fill:#856c60; stroke:none;" d="M129.333 158.667L129.667 159.333L129.333 158.667z"/>
<path style="fill:#8490b2; stroke:none;" d="M131 158L131 160L133 160L133 158L131 158z"/>
<path style="fill:#856c60; stroke:none;" d="M140 158L138 167C141.603 164.726 142.592 161.494 140 158z"/>
<path style="fill:#cabbbe; stroke:none;" d="M239 159L239 160L244 161L244 160L239 159z"/>
<path style="fill:#8490b2; stroke:none;" d="M130.333 160.667L130.667 161.333L130.333 160.667M271 160L272 161L271 160M137.333 161.667L137.667 162.333L137.333 161.667M142 161L143 162L142 161z"/>
<path style="fill:#856c60; stroke:none;" d="M130 162L130 168L131 168L130 162z"/>
<path style="fill:#8490b2; stroke:none;" d="M244 165L244 166L261 163L244 165M137 164L139 174L140 167L137 164M131 165L131 174L132 174L131 165M199 165L200 166L199 165M203 165L204 166L203 165z"/>
<path style="fill:#cabbbe; stroke:none;" d="M248 165L248 166L251 166L248 165z"/>
<path style="fill:#8490b2; stroke:none;" d="M186 166L186 167L193 167L186 166M183 167L184 168L183 167z"/>
<path style="fill:#856c60; stroke:none;" d="M138 168L139 169L138 168z"/>
<path style="fill:#8490b2; stroke:none;" d="M197 172L198 173L197 172z"/>
<path style="fill:#586e99; stroke:none;" d="M282 172L283 173L282 172z"/>
<path style="fill:#856c60; stroke:none;" d="M281 173L281 176L282 176L281 173M131 174L131 177L132 177L131 174M241 174C239.536 178.658 234.363 179.616 230 180.424C219.26 182.412 204.392 183.787 194 180L201 190L216 193.502L234 188L232 187L232 186C237.328 182.956 245.768 177.429 243 189C246.95 192.142 246.478 194.318 246 199C225.876 194.042 206.1 200.585 186 201L188 197L184 198L187 180C175.435 181.28 163.245 190.167 166 202L161 202C161.534 208.966 168.967 224.137 177 224L170 213L184.059 207.046L213 210.986L240 209L248 204C254.352 207.084 256.735 199.576 262 197C261.205 202.947 257.616 206.453 253 210C256.049 221.451 244.543 235.572 233.285 237.812C228.015 238.862 222.436 236.614 217 237.286C209.728 238.186 203.43 240.038 196 238.7C189.849 237.592 184.927 232.708 179 232L181 235L175 233L176 227L160 216L158 223L162 234L165 240L165 241L163 241L163 243L166 241L164 245C178.75 255.564 194.972 263.539 211 271.945C222.267 277.854 226.842 282.974 240 282L242 279L249 264L248 264C245.34 269.621 241.164 275.86 235.005 278.123C232.075 279.199 229.031 277.309 232 275L230 271L235 270L235 268L231 267L231 265C238.313 260.979 247.183 253.457 251 246L252 246L251 249L255.593 235L275 206L274 206L273 209L265 209L268 199L264 201C268.875 186.599 255.083 175.873 241 174z"/>
<path style="fill:#8490b2; stroke:none;" d="M132 175L133 176L132 175M182 176C179.114 185.25 166.485 184.419 160.421 190.454C154.312 196.533 158.329 203.754 156 211L152 210L153 215L152 215L151 212L150 212L155 226L153 225L153 226L156 232C154.934 237.784 159.171 241.136 163 245L164 245L166 241L163 243L165 241L165 240L162 234C165.356 230.737 159.917 226.114 158 223L160 216L176 227L175 233L181 235L179 232C184.944 233.309 189.69 237.985 196 239.12C204.502 240.649 211.698 237.473 220 237.104C227.943 236.751 234.254 239.637 241.7 234.954C248.968 230.382 256.33 218.276 253 210C258.446 207.151 261.584 203.203 262 197L248 204L240 209L235 208C235 211.249 231.799 210.926 229 211L229 212L232 212L228 215L229 220C219.777 222.593 212.396 222.751 203 221L203 220L206 219L205 215C212.537 214.999 222.409 215.874 228 210L205 210L200 212L200 211L203 211L203 210L183.147 206.644L170 213L177 224L174 225L161 202L166 202C164.821 190.218 175.462 182.296 187 180L184 198L188 197L186 201L198 200L198 199L191 199L191 197L211 195L211 197L199 198L199 199L236 197L236 196L226 195L226 194L238 197L238 198L246 199C246.837 194.378 247.603 191.446 243 189C246.604 177.767 236.702 180.809 232 187L234 188L233 189L217 193.172L201 190L194 180L197 181L193 176L192 183L190 183L189 182L192 175L182 176z"/>
<path style="fill:#cabbbe; stroke:none;" d="M278 176L278 181L279 181L278 176z"/>
<path style="fill:#586e99; stroke:none;" d="M281.333 176.667L281.667 177.333L281.333 176.667z"/>
<path style="fill:#8490b2; stroke:none;" d="M132 177L133 178L132 177z"/>
<path style="fill:#856c60; stroke:none;" d="M280 177L280 180L281 180L280 177M132.333 178.667L132.667 179.333L132.333 178.667z"/>
<path style="fill:#8490b2; stroke:none;" d="M136 178L137 179L136 178M197 181L197 182L230 181C221.983 176.686 206.116 181 197 181M133.333 180.667L133.667 181.333L133.333 180.667M136.333 180.667L136.667 181.333L136.333 180.667z"/>
<path style="fill:#586e99; stroke:none;" d="M280 180L281 181L280 180z"/>
<path style="fill:#2f3a38; stroke:none;" d="M202 183L202 184C212.439 185.489 224.565 192.505 233 181L217 185.841L202 183z"/>
<path style="fill:#856c60; stroke:none;" d="M279 181L278 193L279 193L279 181M133 182L133 187L134 187L133 182z"/>
<path style="fill:#8490b2; stroke:none;" d="M133 187L134 188L133 187z"/>
<path style="fill:#856c60; stroke:none;" d="M133.333 188.667L133.667 189.333L133.333 188.667z"/>
<path style="fill:#586e99; stroke:none;" d="M279 189L280 190L279 189z"/>
<path style="fill:#856c60; stroke:none;" d="M134.333 192.667L134.667 193.333L134.333 192.667z"/>
<path style="fill:#8490b2; stroke:none;" d="M135 193L136 194L135 193z"/>
<path style="fill:#cabbbe; stroke:none;" d="M226 194L226 195L241 197C236.752 192.613 231.626 193.774 226 194z"/>
<path style="fill:#586e99; stroke:none;" d="M278.333 193.667L278.667 194.333L278.333 193.667z"/>
<path style="fill:#856c60; stroke:none;" d="M136 194L137 195L136 194z"/>
<path style="fill:#8490b2; stroke:none;" d="M137 194L137 195L142 195L137 194z"/>
<path style="fill:#856c60; stroke:none;" d="M138 195L138 196L142 196L138 195z"/>
<path style="fill:#cabbbe; stroke:none;" d="M191 197L191 199L211 197L211 195L191 197M223 195L224 196L223 195z"/>
<path style="fill:#8490b2; stroke:none;" d="M142.333 196.667L142.667 197.333L142.333 196.667z"/>
<path style="fill:#856c60; stroke:none;" d="M277 197L277 200L278 200L277 197M142 198L142 202L143 202L142 198z"/>
<path style="fill:#8490b2; stroke:none;" d="M167 203L171 208L173 208L171 199L167 203z"/>
<path style="fill:#2f3a38; stroke:none;" d="M174 199L174 201L176 201L176 199L174 199M226 200L233 203L237 202L229 205C230.497 211.988 246.208 204.698 249 201L226 200M219 200L219 201L222 201L219 200M223 200L223 202L225 200L223 200z"/>
<path style="fill:#586e99; stroke:none;" d="M277 200L278 201L277 200z"/>
<path style="fill:#2f3a38; stroke:none;" d="M199 201L200 202L199 201M201 201L203 203L203 201L201 201M209 201L208 203L210 203L209 201M215 201L217 203L217 201L215 201z"/>
<path style="fill:#856c60; stroke:none;" d="M276.333 201.667L276.667 202.333L276.333 201.667z"/>
<path style="fill:#586e99; stroke:none;" d="M142 202L143 203L142 202z"/>
<path style="fill:#2f3a38; stroke:none;" d="M180 202L180 203C185.088 205.681 200.411 212.776 203 205L195 206L194 202L180 202M196 202L196 204L198 202L196 202z"/>
<path style="fill:#8490b2; stroke:none;" d="M217 205L216 205L205 203L204 208L219 209C217.894 204.812 220.179 203.729 224 205L224 206L222 208C225.91 206.915 228.578 206.398 227 202L217 205z"/>
<path style="fill:#cabbbe; stroke:none;" d="M217 207L224 206C221.126 203.401 219.175 203.848 217 207z"/>
<path style="fill:#586e99; stroke:none;" d="M276 203L277 204L276 203z"/>
<path style="fill:#8490b2; stroke:none;" d="M143.333 204.667L143.667 205.333L143.333 204.667z"/>
<path style="fill:#856c60; stroke:none;" d="M226 204L227 205L226 204M275.333 204.667L275.667 205.333L275.333 204.667z"/>
<path style="fill:#8490b2; stroke:none;" d="M199 205L200 206L199 205z"/>
<path style="fill:#cabbbe; stroke:none;" d="M205 207L208 206L205 207M210 205C210.729 208.403 212.806 207.987 216 208L215 205L210 205M225 205L226 206L225 205z"/>
<path style="fill:#856c60; stroke:none;" d="M143 206L144 207L143 206z"/>
<path style="fill:#586e99; stroke:none;" d="M143 207L144 208L143 207z"/>
<path style="fill:#856c60; stroke:none;" d="M183 207L184 208L183 207z"/>
<path style="fill:#8490b2; stroke:none;" d="M144 209L145 210L144 209z"/>
<path style="fill:#2f3a38; stroke:none;" d="M216 209L217 210L216 209z"/>
<path style="fill:#8490b2; stroke:none;" d="M231 209L232 210L231 209z"/>
<path style="fill:#cabbbe; stroke:none;" d="M227 211L227 212L236 210L227 211z"/>
<path style="fill:#586e99; stroke:none;" d="M273 209L274 210L273 209z"/>
<path style="fill:#856c60; stroke:none;" d="M144 210L145 211L144 210z"/>
<path style="fill:#cabbbe; stroke:none;" d="M182 210L184 216L182 216L183 219L176 218C185.123 243.061 205.31 235.698 225.715 234.236C234.863 233.581 251.529 232.137 249 218L244 225L241 224L241 221L250 214C245.742 206.531 238.823 219.143 233.91 221.102C222.643 225.595 203.852 226.521 195 217L201 216L201 215L188 210L191 214L182 210M200 211L200 212L206 212L200 211M224.667 211.333L225.333 211.667L224.667 211.333z"/>
<path style="fill:#856c60; stroke:none;" d="M234 211L235 212L234 211M205 215L206 219L203 220L203 221C211.98 223.163 220.273 223.274 229 220L227 218L228 215L232 212L205 215z"/>
<path style="fill:#8490b2; stroke:none;" d="M145 213L146 214L145 213z"/>
<path style="fill:#856c60; stroke:none;" d="M232 213L233 214L232 213z"/>
<path style="fill:#586e99; stroke:none;" d="M145 214L146 215L145 214z"/>
<path style="fill:#8490b2; stroke:none;" d="M146 215L147 216L146 215M199 215L200 216L199 215z"/>
<path style="fill:#586e99; stroke:none;" d="M269 215L270 216L269 215z"/>
<path style="fill:#856c60; stroke:none;" d="M146 216L147 217L146 216z"/>
<path style="fill:#cabbbe; stroke:none;" d="M175 216L176 217L175 216z"/>
<path style="fill:#586e99; stroke:none;" d="M268 216L269 217L268 216M146 217L147 218L146 217z"/>
<path style="fill:#8490b2; stroke:none;" d="M147 218L148 219L147 218z"/>
<path style="fill:#586e99; stroke:none;" d="M267 218L268 219L267 218z"/>
<path style="fill:#856c60; stroke:none;" d="M147 219L148 220L147 219z"/>
<path style="fill:#586e99; stroke:none;" d="M266 219L267 220L266 219z"/>
<path style="fill:#8490b2; stroke:none;" d="M148 220L149 221L148 220z"/>
<path style="fill:#856c60; stroke:none;" d="M148.333 221.667L148.667 222.333L148.333 221.667z"/>
<path style="fill:#8490b2; stroke:none;" d="M149 223L150 224L149 223M232 223L233 224L232 223z"/>
<path style="fill:#856c60; stroke:none;" d="M149 224L150 225L149 224z"/>
<path style="fill:#586e99; stroke:none;" d="M262 224L263 225L262 224z"/>
<path style="fill:#8490b2; stroke:none;" d="M150 225L151 226L150 225z"/>
<path style="fill:#856c60; stroke:none;" d="M150.333 226.667L150.667 227.333L150.333 226.667z"/>
<path style="fill:#586e99; stroke:none;" d="M261 226L262 227L261 226z"/>
<path style="fill:#8490b2; stroke:none;" d="M151 228L152 229L151 228z"/>
<path style="fill:#586e99; stroke:none;" d="M150 229L151 230L150 229z"/>
<path style="fill:#8490b2; stroke:none;" d="M150 230L151 231L150 230z"/>
<path style="fill:#586e99; stroke:none;" d="M258 230L259 231L258 230M149 231L150 232L149 231z"/>
<path style="fill:#8490b2; stroke:none;" d="M240 231L241 232L240 231z"/>
<path style="fill:#586e99; stroke:none;" d="M257 231L258 232L257 231z"/>
<path style="fill:#8490b2; stroke:none;" d="M149 232L150 233L149 232z"/>
<path style="fill:#586e99; stroke:none;" d="M256 232L257 233L256 232M148 234L149 235L148 234z"/>
<path style="fill:#cabbbe; stroke:none;" d="M157 234L158 235L157 234z"/>
<path style="fill:#8490b2; stroke:none;" d="M148 235L149 236L148 235z"/>
<path style="fill:#586e99; stroke:none;" d="M254 236L255 237L254 236z"/>
<path style="fill:#8490b2; stroke:none;" d="M147 237L148 238L147 237z"/>
<path style="fill:#586e99; stroke:none;" d="M128 266L129 266L133 259L134 259L131 270C124.036 271.017 121.944 276.151 116.795 280.01C105.409 288.544 84.0023 296.608 77 309L73 308L51 319L59 322L59 323C48.6579 320.994 36.5806 319.974 28 327L31 322C10.695 336.99 16.7965 377.872 14 400L23 400L21 389L18 390C17.675 374.255 18.0884 358.119 23.1659 343C24.9527 337.68 26.4392 328.905 33 328C33 324.166 41.9304 324.829 45 325C56.7354 325.652 66.7736 334.341 78 337L69 328L69 327L72 328L77 327C80.8829 322.571 89.972 321.661 89 315L94 311L96 313L97 313L123 288L119 289L120 285L133 287L132 280L133 280L135 282L138 278L138 277L136 273C138.898 271.722 139.483 269.75 136 269C138.996 264.115 138.856 255.915 145 254L146 251L149 252L147 238C139.24 242.022 131.322 257.998 128 266z"/>
<path style="fill:#8490b2; stroke:none;" d="M146 239L146 245L147 245L146 239M144 240L143 243L144 240z"/>
<path style="fill:#586e99; stroke:none;" d="M253.333 240.667L253.667 241.333L253.333 240.667z"/>
<path style="fill:#2f3a38; stroke:none;" d="M211 247L211 248L230 250L228 253C231.582 252.432 232.943 251.492 234 248L238 248L239 241L211 247z"/>
<path style="fill:#8490b2; stroke:none;" d="M166 244L167 245L166 244z"/>
<path style="fill:#586e99; stroke:none;" d="M238 244L238 248L234 251C238.133 250.138 240.862 247.97 238 244M242.333 244.667L242.667 245.333L242.333 244.667z"/>
<path style="fill:#8490b2; stroke:none;" d="M164 245L165 246L164 245z"/>
<path style="fill:#2f3a38; stroke:none;" d="M194.667 245.333L195.333 245.667L194.667 245.333z"/>
<path style="fill:#586e99; stroke:none;" d="M201 246L201 247L203 247L203 248L200 248L200 249L216 247L216 245L201 246z"/>
<path style="fill:#8490b2; stroke:none;" d="M165.667 246.333L166.333 246.667L165.667 246.333z"/>
<path style="fill:#586e99; stroke:none;" d="M198.667 246.333L199.333 246.667L198.667 246.333z"/>
<path style="fill:#2f3a38; stroke:none;" d="M200 246L203 248L203 247L200 246z"/>
<path style="fill:#8490b2; stroke:none;" d="M251 246L231 265L231 267L235 268L235 270L230 271L232 275C225.864 275 230.202 280.95 234 280C240.468 278.383 247.321 264.33 250 265C250.016 261.261 249.599 251.645 254 251L254 250L251 249L251 246M148 247L149 248L148 247M167 247L168 248L167 247M168 248L169 249L168 248z"/>
<path style="fill:#586e99; stroke:none;" d="M211 248L211 249L216 249L211 248M217 248L217 249L230 251L217 248z"/>
<path style="fill:#8490b2; stroke:none;" d="M149 249L150 250L149 249M169.667 249.333L170.333 249.667L169.667 249.333z"/>
<path style="fill:#586e99; stroke:none;" d="M253 249L254 250L253 249z"/>
<path style="fill:#8490b2; stroke:none;" d="M138 250L138 252L140 250L138 250z"/>
<path style="fill:#2f3a38; stroke:none;" d="M149 250L146 251L145 254C138.699 255.153 138.399 263.86 136 269C138.092 270.582 137.733 271.106 136 273L138 277L138 278L135 282L133 280L132 280L133 287L120 285L119 289L123 288C116.304 296.142 100.04 303.031 97 313L96 313L94 311L89 315L77 327L72 328L69 327L69 328L78 337C67.5966 332.513 56.2868 326.157 45 324.87C41.6851 324.492 33.6732 323.903 33 328C26.2267 328.317 24.985 336.584 23.1659 342C17.9873 357.42 17.3102 373.934 18 390L21 389L23 400L251 400L244 382L266 400C256.195 386.119 233.491 378.025 232 359L229 360C225.465 348.829 217.437 338.009 211.399 328C194.758 300.415 173.726 270.926 149 250z"/>
<path style="fill:#586e99; stroke:none;" d="M150.333 250.667L150.667 251.333L150.333 250.667z"/>
<path style="fill:#8490b2; stroke:none;" d="M171 250L172 251L171 250z"/>
<path style="fill:#cabbbe; stroke:none;" d="M252 250L238 284C253.527 283.455 261.968 304.035 263 317L264 317L256.661 268L252 250z"/>
<path style="fill:#8490b2; stroke:none;" d="M151 251L152 252L151 251M172.667 251.333L173.333 251.667L172.667 251.333z"/>
<path style="fill:#586e99; stroke:none;" d="M233 251L234 252L233 251M254.333 251.667L254.667 252.333L254.333 251.667z"/>
<path style="fill:#8490b2; stroke:none;" d="M152 252L155 255L152 252M174 252L175 253L174 252z"/>
<path style="fill:#586e99; stroke:none;" d="M224.667 252.333L225.333 252.667L224.667 252.333M152 253L153 254L152 253z"/>
<path style="fill:#8490b2; stroke:none;" d="M176 253L177 254L176 253M254 253L255 254L254 253z"/>
<path style="fill:#586e99; stroke:none;" d="M153 254L154 255L153 254z"/>
<path style="fill:#8490b2; stroke:none;" d="M177 254L178 255L177 254z"/>
<path style="fill:#586e99; stroke:none;" d="M220 254L221 255L220 254M222 254L223 255L222 254M154 255L155 256L154 255z"/>
<path style="fill:#8490b2; stroke:none;" d="M179 255L180 256L179 255z"/>
<path style="fill:#586e99; stroke:none;" d="M255 255L255 259L256 259L255 255M155 256L156 257L155 256z"/>
<path style="fill:#8490b2; stroke:none;" d="M181 256L182 257L181 256z"/>
<path style="fill:#586e99; stroke:none;" d="M156 257L157 258L156 257z"/>
<path style="fill:#8490b2; stroke:none;" d="M183 257L184 258L183 257z"/>
<path style="fill:#586e99; stroke:none;" d="M157 258L158 259L157 258z"/>
<path style="fill:#8490b2; stroke:none;" d="M185.667 258.333L186.333 258.667L185.667 258.333M133 259C111.048 289.884 65.0148 293.248 39 319L40 317L39 317L39 320C33.6635 319.696 30.2649 322.257 28 327C38.0926 320.958 47.6926 321.541 59 323L59 322L51 319L52 316L73 308L77 309L107.536 287.675L131 270L133 259M158 259L159 260L158 259M187.667 259.333L188.333 259.667L187.667 259.333M255 259L255 262L256 262L255 259M159 260L160 261L159 260M189.667 260.333L190.333 260.667L189.667 260.333z"/>
<path style="fill:#586e99; stroke:none;" d="M159 261L160 262L159 261z"/>
<path style="fill:#8490b2; stroke:none;" d="M191 261L192 262L191 261z"/>
<path style="fill:#586e99; stroke:none;" d="M160 262L161 263L160 262z"/>
<path style="fill:#8490b2; stroke:none;" d="M161.333 262.667L161.667 263.333L161.333 262.667M193 262L194 263L193 262M195 263L196 264L195 263z"/>
<path style="fill:#586e99; stroke:none;" d="M162 264L163 265L162 264M256.333 264.667L256.667 265.333L256.333 264.667z"/>
<path style="fill:#8490b2; stroke:none;" d="M163 265L164 266L163 265M198 265L199 266L198 265M164 266L165 267L164 266z"/>
<path style="fill:#2f3a38; stroke:none;" d="M203 266L205 268L203 266z"/>
<path style="fill:#8490b2; stroke:none;" d="M248.333 266.667L248.667 267.333L248.333 266.667M256.333 266.667L256.667 267.333L256.333 266.667z"/>
<path style="fill:#586e99; stroke:none;" d="M127 267L128 268L127 267z"/>
<path style="fill:#8490b2; stroke:none;" d="M165 267L166 268L165 267z"/>
<path style="fill:#586e99; stroke:none;" d="M125.667 268.333L126.333 268.667L125.667 268.333z"/>
<path style="fill:#8490b2; stroke:none;" d="M166 268L168 270L166 268M203 268L204 269L203 268z"/>
<path style="fill:#586e99; stroke:none;" d="M123.667 269.333L124.333 269.667L123.667 269.333M166 269L167 270L166 269z"/>
<path style="fill:#8490b2; stroke:none;" d="M205.667 269.333L206.333 269.667L205.667 269.333M247 269L248 270L247 269z"/>
<path style="fill:#586e99; stroke:none;" d="M257 269L258 270L257 269M121.667 270.333L122.333 270.667L121.667 270.333z"/>
<path style="fill:#8490b2; stroke:none;" d="M168 270L169 271L168 270M207 270L208 271L207 270M246 270L247 271L246 270M257.333 270.667L257.667 271.333L257.333 270.667z"/>
<path style="fill:#586e99; stroke:none;" d="M168 271L169 272L168 271z"/>
<path style="fill:#8490b2; stroke:none;" d="M209.667 271.333L210.333 271.667L209.667 271.333z"/>
<path style="fill:#586e99; stroke:none;" d="M118 272L119 273L118 272M169 272L170 273L169 272z"/>
<path style="fill:#8490b2; stroke:none;" d="M212 272L213 273L212 272M245 272L246 273L245 272z"/>
<path style="fill:#586e99; stroke:none;" d="M116 273L117 274L116 273M170 273L171 274L170 273z"/>
<path style="fill:#8490b2; stroke:none;" d="M244 273L243 276L244 273z"/>
<path style="fill:#586e99; stroke:none;" d="M258.333 273.667L258.667 274.333L258.333 273.667M114.667 274.333L115.333 274.667L114.667 274.333M171 274L172 275L171 274z"/>
<path style="fill:#8490b2; stroke:none;" d="M215 274L216 275L215 274z"/>
<path style="fill:#586e99; stroke:none;" d="M243 274L244 275L243 274M113 275L114 276L113 275M172 275L173 276L172 275z"/>
<path style="fill:#8490b2; stroke:none;" d="M217 275L218 276L217 275z"/>
<path style="fill:#2f3a38; stroke:none;" d="M242 275L241 278L242 275z"/>
<path style="fill:#8490b2; stroke:none;" d="M258 275L258 278L259 278L258 275z"/>
<path style="fill:#586e99; stroke:none;" d="M260 275C264.232 284.201 274.076 288.129 280.147 295.495C282.575 298.442 282.473 302.933 286.174 304.953C291.697 307.966 294.657 300.041 294 296L312 302L321 304L320 307C335.056 305.262 351.994 321.931 363 330C361.123 316.451 350.154 316.098 340 310.424C321.992 300.36 302.156 292.881 283 285.385C275.177 282.324 268.08 277.328 260 275M111 276L112 277L111 276M173 276L174 277L173 276z"/>
<path style="fill:#8490b2; stroke:none;" d="M218 276L219 277L218 276z"/>
<path style="fill:#586e99; stroke:none;" d="M241 276L242 277L241 276M110 277L111 278L110 277z"/>
<path style="fill:#8490b2; stroke:none;" d="M174 277L175 278L174 277M242 277L243 278L242 277z"/>
<path style="fill:#586e99; stroke:none;" d="M108 278L109 279L108 278z"/>
<path style="fill:#2f3a38; stroke:none;" d="M131.333 278.667L131.667 279.333L131.333 278.667z"/>
<path style="fill:#8490b2; stroke:none;" d="M175 278L176 279L175 278z"/>
<path style="fill:#586e99; stroke:none;" d="M240.333 278.667L240.667 279.333L240.333 278.667M259.333 278.667L259.667 279.333L259.333 278.667M107 279L108 280L107 279z"/>
<path style="fill:#8490b2; stroke:none;" d="M176 279L177 280L176 279M222 279L223 280L222 279M241 279L242 280L241 279M177 280L178 281L177 280M240 280L241 281L240 280M259.333 280.667L259.667 281.333L259.333 280.667z"/>
<path style="fill:#586e99; stroke:none;" d="M104 281L105 282L104 281z"/>
<path style="fill:#8490b2; stroke:none;" d="M225 281L226 282L225 281M230 281L231 282L230 281z"/>
<path style="fill:#586e99; stroke:none;" d="M103 282L104 283L103 282z"/>
<path style="fill:#8490b2; stroke:none;" d="M179 282L180 283L179 282M227.667 282.333L228.333 282.667L227.667 282.333M232 282L229 283L229 284L238 286L238 287L236 287L236 288L239 287L241 290L238 291L238 289L231 291L232 287L231 287L231 290L228 289L230 286L226 284L228 287L218 297L229 291L224 294C226.968 292.516 228.773 291.909 228 295L231 295L231 298L235 297L235 294L236 294L229 305L236 299L233 304L236 303L240 308L234 317L240 310L250 305L248 303L252 299L246 302L249 290L248 290L244 292L244 291L249 288L249 287L246 285L248 288L242 291L246 288L246 287L238 286L239 282L232 282z"/>
<path style="fill:#586e99; stroke:none;" d="M232 283L232 284L238 283L232 283M101 283L102 284L101 283M179 283L180 284L179 283z"/>
<path style="fill:#8490b2; stroke:none;" d="M240.667 283.333L241.333 283.667L240.667 283.333z"/>
<path style="fill:#586e99; stroke:none;" d="M260 283L260 286L261 286L260 283M99 284L100 285L99 284M180 284L181 285L180 284M225 284L223 288L228 287L225 284M238 285L242 286L238 285z"/>
<path style="fill:#2f3a38; stroke:none;" d="M240 284L240 285L244 286L240 284z"/>
<path style="fill:#8490b2; stroke:none;" d="M244 284L245 285L244 284z"/>
<path style="fill:#586e99; stroke:none;" d="M98 285L99 286L98 285M181 285L182 286L181 285M244 285L246 289L247 289L248 287L244 285M96 286L97 287L96 286z"/>
<path style="fill:#8490b2; stroke:none;" d="M182 286L183 287L182 286M223 286L224 287L223 286z"/>
<path style="fill:#586e99; stroke:none;" d="M228 289L231 290L231 287L232 287L231 291L238 289L238 291L241 290L239 287L237 288L236 288L236 287L238 287C234.146 285.387 230.888 286.051 228 289z"/>
<path style="fill:#8490b2; stroke:none;" d="M260.333 286.667L260.667 287.333L260.333 286.667z"/>
<path style="fill:#586e99; stroke:none;" d="M94 287L95 288L94 287z"/>
<path style="fill:#8490b2; stroke:none;" d="M183 287L184 288L183 287M222.333 287.667L222.667 288.333L222.333 287.667M224 287L225 288L224 287M233.667 287.333L234.333 287.667L233.667 287.333z"/>
<path style="fill:#2f3a38; stroke:none;" d="M246 287L247 288L246 287z"/>
<path style="fill:#586e99; stroke:none;" d="M92 288L93 289L92 288z"/>
<path style="fill:#8490b2; stroke:none;" d="M184 288L185 289L184 288z"/>
<path style="fill:#586e99; stroke:none;" d="M244 288L243 291L244 291L244 288z"/>
<path style="fill:#2f3a38; stroke:none;" d="M245 288L246 289L245 288M248 288L249 289L248 288z"/>
<path style="fill:#586e99; stroke:none;" d="M244 291L244 292L248 290L249 290L246 302L252 299L252 302L249 303L237 318L241 318L241 317L238 317L239 314L244 317L242 315L242 314L248 309L249 315L246 314L246 315L247 317L252 332L251 332L249 328L246 325L245 324L241 324L240 319L239 319L240 322L238 319L235 320L234 317L234 316L240 308L236 303L233 304L236 299L227 304L234 297L231 299L231 295L228 295L229 293L224 294L229 291C223.85 288.227 217.552 296.933 215 301L218 299L217 302L220 303L225 309L228 305L227 308L229 307L229 308L227 313L217 305L214 306L213 301L212 301L212 305L208 308L213 313L214 313L214 309L215 309L217 314L218 314L217 311L229 316L231 330L229 329L234 336L226 327L225 327L226 337L228 347L233 349L233 348C228.711 344.593 229.014 340.156 229 335L235 342L238 341L238 345C246.235 343.424 258.297 360.228 261.715 366.715C263.403 369.919 264.449 378.749 269 377L270 380L271 380C270.356 368.492 268.419 351.414 260 343C261.733 340.726 259.869 338.323 258.469 335.999C254.785 329.881 251.216 321.994 250.812 314.715C250.501 309.086 253.446 304.716 258 310L259 310C257.887 306.37 256.83 304.658 253 304L254 297L251 298L252 292L255 294C251.68 289.483 249.052 288.334 244 291M90.6667 289.333L91.3333 289.667L90.6667 289.333z"/>
<path style="fill:#8490b2; stroke:none;" d="M185 289L186 290L185 289M221 289L222 290L221 289z"/>
<path style="fill:#2f3a38; stroke:none;" d="M223 289L224 290L223 289M244 289L245 290L244 289z"/>
<path style="fill:#586e99; stroke:none;" d="M261 289L261 292L262 292L261 289M88.6667 290.333L89.3333 290.667L88.6667 290.333z"/>
<path style="fill:#cabbbe; stroke:none;" d="M92 290L93 291L92 290z"/>
<path style="fill:#586e99; stroke:none;" d="M185 290L186 291L185 290z"/>
<path style="fill:#8490b2; stroke:none;" d="M220 290L214 298L220 290z"/>
<path style="fill:#586e99; stroke:none;" d="M222 290L223 291L222 290z"/>
<path style="fill:#2f3a38; stroke:none;" d="M242 290L243 291L242 290z"/>
<path style="fill:#586e99; stroke:none;" d="M86.6667 291.333L87.3333 291.667L86.6667 291.333M186 291L187 292L186 291M221 291L218 296L221 291M230 291L230 294L231 294L230 291z"/>
<path style="fill:#cabbbe; stroke:none;" d="M239 291L236 293L236 294L240 292L239 291z"/>
<path style="fill:#2f3a38; stroke:none;" d="M241 291L242 292L241 291z"/>
<path style="fill:#586e99; stroke:none;" d="M85 292L86 293L85 292M187 292L188 293L187 292z"/>
<path style="fill:#2f3a38; stroke:none;" d="M220 292L221 293L220 292z"/>
<path style="fill:#586e99; stroke:none;" d="M235 292L236 293L235 292M238 293L238 297L243 294L238 293M243 292L244 293L243 292M246 292L245 294L246 292z"/>
<path style="fill:#2f3a38; stroke:none;" d="M252 292L251 298L254 297L253 304L262 315C259.999 306.69 259.11 297.726 252 292z"/>
<path style="fill:#8490b2; stroke:none;" d="M261.333 292.667L261.667 293.333L261.333 292.667z"/>
<path style="fill:#586e99; stroke:none;" d="M83 293L84 294L83 293M188 293L189 294L188 293z"/>
<path style="fill:#2f3a38; stroke:none;" d="M219 293L220 294L219 293z"/>
<path style="fill:#8490b2; stroke:none;" d="M237 293L239 295L237 293z"/>
<path style="fill:#cabbbe; stroke:none;" d="M240 293L241 294L240 293z"/>
<path style="fill:#2f3a38; stroke:none;" d="M291 293L294 295L291 293z"/>
<path style="fill:#586e99; stroke:none;" d="M81 294L82 295L81 294z"/>
<path style="fill:#8490b2; stroke:none;" d="M189 294L190 295L189 294z"/>
<path style="fill:#2f3a38; stroke:none;" d="M218 294L219 295L218 294z"/>
<path style="fill:#cabbbe; stroke:none;" d="M235 294L234 296L235 294z"/>
<path style="fill:#2f3a38; stroke:none;" d="M237 294L238 295L237 294z"/>
<path style="fill:#cabbbe; stroke:none;" d="M239 294L240 295L239 294z"/>
<path style="fill:#8490b2; stroke:none;" d="M255 294L256 295L255 294z"/>
<path style="fill:#586e99; stroke:none;" d="M78.6667 295.333L79.3333 295.667L78.6667 295.333M189 295L190 296L189 295z"/>
<path style="fill:#2f3a38; stroke:none;" d="M217 295L212 302L212 303L214 306L217 305L227 313L229 307L227 308L228 305L225 309L220 303L217 302L218 299L215 301L217 295z"/>
<path style="fill:#586e99; stroke:none;" d="M232 295L231 297L232 295M235.667 295.333L236.333 295.667L235.667 295.333z"/>
<path style="fill:#cabbbe; stroke:none;" d="M238 295L239 296L238 295z"/>
<path style="fill:#586e99; stroke:none;" d="M262 295L262 298L263 298L262 295M279 295L280 298L279 295M76.6667 296.333L77.3333 296.667L76.6667 296.333z"/>
<path style="fill:#8490b2; stroke:none;" d="M190 296L191 297L190 296M227 296L228 297L227 296z"/>
<path style="fill:#cabbbe; stroke:none;" d="M233 296L234 297L233 296z"/>
<path style="fill:#2f3a38; stroke:none;" d="M235 296L234 298L235 296z"/>
<path style="fill:#586e99; stroke:none;" d="M256.333 296.667L256.667 297.333L256.333 296.667M75 297L76 298L75 297z"/>
<path style="fill:#8490b2; stroke:none;" d="M191 297L192 298L191 297M225 297L226 298L225 297z"/>
<path style="fill:#cabbbe; stroke:none;" d="M232 297L233 298L232 297M235 297L236 298L235 297z"/>
<path style="fill:#586e99; stroke:none;" d="M237 297L238 298L237 297M72.6667 298.333L73.3333 298.667L72.6667 298.333M214 298L215 299L214 298z"/>
<path style="fill:#2f3a38; stroke:none;" d="M218 298L219 299L218 298z"/>
<path style="fill:#cabbbe; stroke:none;" d="M231 298L232 299L231 298z"/>
<path style="fill:#2f3a38; stroke:none;" d="M233 298L234 299L233 298z"/>
<path style="fill:#586e99; stroke:none;" d="M236 298L237 299L236 298z"/>
<path style="fill:#8490b2; stroke:none;" d="M257 298L258 299L257 298M262.333 298.667L262.667 299.333L262.333 298.667z"/>
<path style="fill:#586e99; stroke:none;" d="M71 299L72 300L71 299z"/>
<path style="fill:#cabbbe; stroke:none;" d="M74 299L75 300L74 299z"/>
<path style="fill:#586e99; stroke:none;" d="M192 299L193 300L192 299z"/>
<path style="fill:#8490b2; stroke:none;" d="M213 299L214 300L213 299M230 299L227 304L230 299z"/>
<path style="fill:#2f3a38; stroke:none;" d="M232 299L233 300L232 299z"/>
<path style="fill:#8490b2; stroke:none;" d="M258.333 299.667L258.667 300.333L258.333 299.667z"/>
<path style="fill:#586e99; stroke:none;" d="M69 300L70 301L69 300z"/>
<path style="fill:#8490b2; stroke:none;" d="M193 300L194 301L193 300M212 300L213 301L212 300z"/>
<path style="fill:#2f3a38; stroke:none;" d="M219 300L220 301L219 300M231 300L228 305L229 305L231 300M252 300L253 301L252 300z"/>
<path style="fill:#586e99; stroke:none;" d="M67 301L68 302L67 301z"/>
<path style="fill:#8490b2; stroke:none;" d="M87 301L87 304L88 304L87 301z"/>
<path style="fill:#586e99; stroke:none;" d="M231 301L232 302L231 301z"/>
<path style="fill:#2f3a38; stroke:none;" d="M250.667 301.333L251.333 301.667L250.667 301.333z"/>
<path style="fill:#586e99; stroke:none;" d="M258 301L259 302L258 301M308 301L308 302L311 302L308 301M65 302L66 303L65 302M194 302L195 303L194 302M230 302L231 303L230 302M236 302L237 303L236 302z"/>
<path style="fill:#2f3a38; stroke:none;" d="M249 302L250 303L249 302z"/>
<path style="fill:#8490b2; stroke:none;" d="M259 302L260 303L259 302z"/>
<path style="fill:#586e99; stroke:none;" d="M263 302L263 305L264 305L263 302M62.6667 303.333L63.3333 303.667L62.6667 303.333z"/>
<path style="fill:#8490b2; stroke:none;" d="M195 303L196 304L195 303M210 303L211 304L210 303z"/>
<path style="fill:#2f3a38; stroke:none;" d="M211.333 303.667L211.667 304.333L211.333 303.667z"/>
<path style="fill:#586e99; stroke:none;" d="M229 303L230 304L229 303z"/>
<path style="fill:#2f3a38; stroke:none;" d="M248 303L249 304L248 303z"/>
<path style="fill:#586e99; stroke:none;" d="M259 303L260 304L259 303M60.6667 304.333L61.3333 304.667L60.6667 304.333z"/>
<path style="fill:#8490b2; stroke:none;" d="M196 304L197 305L196 304z"/>
<path style="fill:#cabbbe; stroke:none;" d="M245 304L241 309L245 304z"/>
<path style="fill:#2f3a38; stroke:none;" d="M247 304L248 305L247 304z"/>
<path style="fill:#8490b2; stroke:none;" d="M260.333 304.667L260.667 305.333L260.333 304.667z"/>
<path style="fill:#586e99; stroke:none;" d="M58.6667 305.333L59.3333 305.667L58.6667 305.333M196 305L197 306L196 305z"/>
<path style="fill:#8490b2; stroke:none;" d="M209 305L210 306L209 305z"/>
<path style="fill:#2f3a38; stroke:none;" d="M224 305L225 306L224 305M246 305L247 306L246 305M250.333 305.667L250.667 306.333L250.333 305.667z"/>
<path style="fill:#8490b2; stroke:none;" d="M263 305L263 308L264 308L263 305z"/>
<path style="fill:#586e99; stroke:none;" d="M56.6667 306.333L57.3333 306.667L56.6667 306.333z"/>
<path style="fill:#8490b2; stroke:none;" d="M197 306L198 307L197 306M208 306L209 307L208 306z"/>
<path style="fill:#2f3a38; stroke:none;" d="M229 306L230 307L229 306z"/>
<path style="fill:#586e99; stroke:none;" d="M245 306L246 307L245 306z"/>
<path style="fill:#cabbbe; stroke:none;" d="M247 306L248 307L247 306z"/>
<path style="fill:#8490b2; stroke:none;" d="M251 307L251 308L258 309L251 307z"/>
<path style="fill:#586e99; stroke:none;" d="M260 306L261 307L260 306M55 307L56 308L55 307z"/>
<path style="fill:#8490b2; stroke:none;" d="M198 307L199 308L198 307M243 307L244 308L243 307z"/>
<path style="fill:#2f3a38; stroke:none;" d="M244 307L245 308L244 307z"/>
<path style="fill:#cabbbe; stroke:none;" d="M246 307L247 308L246 307M252 307C250.799 311.103 250.415 316.101 254 319C252.279 325.461 255.039 330.35 258 336L259 336L259 333L260 333L272 382C274.056 376.96 271.545 370.291 270.95 365C269.295 350.281 266.742 333.793 261.309 320C258.884 313.846 258.939 309.229 252 307z"/>
<path style="fill:#8490b2; stroke:none;" d="M261.333 307.667L261.667 308.333L261.333 307.667z"/>
<path style="fill:#586e99; stroke:none;" d="M53 308L54 309L53 308M198 308L199 309L198 308z"/>
<path style="fill:#8490b2; stroke:none;" d="M205 313C207.905 314.981 209.735 316.667 213 315L215 320L216 320L215 315C223.366 325.443 225.447 338.985 227 352L232 354L233 351L234 356L251 369L245 362L246 361L256 370C249.619 370.572 246.033 366.326 241 363L246 377L249 381L240 374L239 374C241.764 379.086 249.054 386.138 255 386L259 390C260.026 396.009 265.184 399.345 271 400L271 397L268 395L270 396L259 375L267 380L266 383L271 387L272 387L271 382L268 382L268 380C270.697 380.854 271.386 380.851 272 378L271 378L270 380L269 377L267 379C262.554 367.765 258.131 358.633 248.985 350.17C245.898 347.312 242.208 342.901 238 345L238 341L235 342L229 335C229.003 340.019 227.983 345.42 233 348L233 349L228 347L226 337L221 315L228 321L229 316L227 318L217 311L218 314L217 314L215 309L214 309L214 313C210.552 309.097 207.197 307.045 205 313z"/>
<path style="fill:#2f3a38; stroke:none;" d="M243 308L244 309L243 308z"/>
<path style="fill:#cabbbe; stroke:none;" d="M245 308L246 309L245 308z"/>
<path style="fill:#2f3a38; stroke:none;" d="M249 308L250 309L249 308z"/>
<path style="fill:#586e99; stroke:none;" d="M51 309L52 310L51 309z"/>
<path style="fill:#8490b2; stroke:none;" d="M199 309L200 310L199 309z"/>
<path style="fill:#586e99; stroke:none;" d="M226 309L227 310L226 309z"/>
<path style="fill:#2f3a38; stroke:none;" d="M242 309L243 310L242 309z"/>
<path style="fill:#cabbbe; stroke:none;" d="M244 309L245 310L244 309z"/>
<path style="fill:#8490b2; stroke:none;" d="M242 315L249 315L248 309L242 315z"/>
<path style="fill:#586e99; stroke:none;" d="M261 309L261 314L262 314L261 309M264 309L264 313L265 313L264 309M49 310L50 311L49 310z"/>
<path style="fill:#cabbbe; stroke:none;" d="M52.6667 310.333L53.3333 310.667L52.6667 310.333z"/>
<path style="fill:#2f3a38; stroke:none;" d="M229 310L230 311L229 310z"/>
<path style="fill:#cabbbe; stroke:none;" d="M240 310L239 312L240 310z"/>
<path style="fill:#2f3a38; stroke:none;" d="M241 310L242 311L241 310z"/>
<path style="fill:#cabbbe; stroke:none;" d="M243 310L244 311L243 310z"/>
<path style="fill:#8490b2; stroke:none;" d="M258 310L259 311L258 310z"/>
<path style="fill:#586e99; stroke:none;" d="M200 311L201 312L200 311z"/>
<path style="fill:#2f3a38; stroke:none;" d="M240 311L241 312L240 311z"/>
<path style="fill:#cabbbe; stroke:none;" d="M242 311L243 312L242 311z"/>
<path style="fill:#586e99; stroke:none;" d="M259.333 311.667L259.667 312.333L259.333 311.667M46 312L47 313L46 312z"/>
<path style="fill:#cabbbe; stroke:none;" d="M48.6667 312.333L49.3333 312.667L48.6667 312.333z"/>
<path style="fill:#8490b2; stroke:none;" d="M201 312L202 313L201 312z"/>
<path style="fill:#2f3a38; stroke:none;" d="M239 312L240 313L239 312z"/>
<path style="fill:#8490b2; stroke:none;" d="M241 312L240 314L241 312M250.333 312.667L250.667 313.333L250.333 312.667M262 312L267 345L268 345L265 313L264 313L264 317L263 317L262 312z"/>
<path style="fill:#586e99; stroke:none;" d="M44 313L45 314L44 313z"/>
<path style="fill:#8490b2; stroke:none;" d="M202 313L203 314L202 313z"/>
<path style="fill:#2f3a38; stroke:none;" d="M238 313L239 314L238 313z"/>
<path style="fill:#8490b2; stroke:none;" d="M259.333 313.667L259.667 314.333L259.333 313.667z"/>
<path style="fill:#cabbbe; stroke:none;" d="M45 314L42 316L42 317L46 315L45 314z"/>
<path style="fill:#586e99; stroke:none;" d="M202 314L203 315L202 314z"/>
<path style="fill:#2f3a38; stroke:none;" d="M232 314L233 315L232 314z"/>
<path style="fill:#cabbbe; stroke:none;" d="M239 314L240 315L239 314z"/>
<path style="fill:#586e99; stroke:none;" d="M244 314L245 315L244 314M41 315L42 316L41 315z"/>
<path style="fill:#8490b2; stroke:none;" d="M203 315L204 316L203 315z"/>
<path style="fill:#cabbbe; stroke:none;" d="M221 315L227 330L228 330C228.306 322.75 228.643 318.065 221 315z"/>
<path style="fill:#2f3a38; stroke:none;" d="M236 315L235 320L240 321L236 315z"/>
<path style="fill:#8490b2; stroke:none;" d="M238 315L239 316L238 315z"/>
<path style="fill:#2f3a38; stroke:none;" d="M238 316L238 317L242 317L238 316M243 315L243 316L248 316L243 315M249 315L250 316L249 315z"/>
<path style="fill:#8490b2; stroke:none;" d="M251 315L251 319L252 319L251 315z"/>
<path style="fill:#586e99; stroke:none;" d="M260 315L261 320L262 320L260 315M40 316L41 317L40 316z"/>
<path style="fill:#2f3a38; stroke:none;" d="M232 316L235 319L232 316z"/>
<path style="fill:#8490b2; stroke:none;" d="M238 318L238 319L242 322L248 323L245 327L248 329L248 327L251 329L250 317L238 318z"/>
<path style="fill:#586e99; stroke:none;" d="M245 316L246 317L245 316z"/>
<path style="fill:#2f3a38; stroke:none;" d="M250 316L251 317L250 316z"/>
<path style="fill:#586e99; stroke:none;" d="M38 317L39 318L38 317z"/>
<path style="fill:#cabbbe; stroke:none;" d="M40 317L39 319L41 319L40 317z"/>
<path style="fill:#586e99; stroke:none;" d="M204 317L205 318L204 317z"/>
<path style="fill:#2f3a38; stroke:none;" d="M230 317L231 320L232 320L230 317z"/>
<path style="fill:#8490b2; stroke:none;" d="M260.333 317.667L260.667 318.333L260.333 317.667z"/>
<path style="fill:#586e99; stroke:none;" d="M264 317L264 322L265 322L264 317M37 318L38 319L37 318M154 318L155 319L154 318z"/>
<path style="fill:#8490b2; stroke:none;" d="M205 318L206 319L205 318z"/>
<path style="fill:#cabbbe; stroke:none;" d="M37.6667 319.333L38.3333 319.667L37.6667 319.333z"/>
<path style="fill:#586e99; stroke:none;" d="M152 319L151 321L152 319z"/>
<path style="fill:#8490b2; stroke:none;" d="M236 319L237 320L236 319z"/>
<path style="fill:#cabbbe; stroke:none;" d="M240 319L241 320L240 319z"/>
<path style="fill:#8490b2; stroke:none;" d="M252 319L252 321L254 319L252 319z"/>
<path style="fill:#586e99; stroke:none;" d="M346 319L347 320L346 319M33 320L34 321L33 320M206 320L207 321L206 320z"/>
<path style="fill:#8490b2; stroke:none;" d="M237 320L240 322L237 320z"/>
<path style="fill:#cabbbe; stroke:none;" d="M241.667 320.333L242.333 320.667L241.667 320.333z"/>
<path style="fill:#8490b2; stroke:none;" d="M254 320L255 321L254 320M207 321L208 322L207 321z"/>
<path style="fill:#2f3a38; stroke:none;" d="M232.333 321.667L232.667 322.333L232.333 321.667M241 321L242 322L241 321z"/>
<path style="fill:#cabbbe; stroke:none;" d="M243 321L247 325L243 321z"/>
<path style="fill:#586e99; stroke:none;" d="M149 322L150 323L149 322z"/>
<path style="fill:#cabbbe; stroke:none;" d="M240 322L241 323L240 322z"/>
<path style="fill:#2f3a38; stroke:none;" d="M242 322L245 324L245 323L242 322z"/>
<path style="fill:#586e99; stroke:none;" d="M243 322L244 323L243 322M246 322L247 323L246 322z"/>
<path style="fill:#8490b2; stroke:none;" d="M253 322L254 323L253 322M255 322L257 325L255 322z"/>
<path style="fill:#586e99; stroke:none;" d="M208 323L209 324L208 323z"/>
<path style="fill:#8490b2; stroke:none;" d="M241.667 323.333L242.333 323.667L241.667 323.333z"/>
<path style="fill:#586e99; stroke:none;" d="M247 323L248 324L247 323M264.333 323.667L264.667 324.333L264.333 323.667z"/>
<path style="fill:#8490b2; stroke:none;" d="M209 324L210 325L209 324M228 324C228.064 326.993 227.946 328.346 231 329L231 328L228 324M239 324L240 325L239 324M243 324L244 325L243 324z"/>
<path style="fill:#2f3a38; stroke:none;" d="M245 324L246 325L245 324z"/>
<path style="fill:#cabbbe; stroke:none;" d="M244 325L245 326L244 325z"/>
<path style="fill:#2f3a38; stroke:none;" d="M246 325L247 326L246 325z"/>
<path style="fill:#586e99; stroke:none;" d="M265 325L266 336L267 336L265 325z"/>
<path style="fill:#8490b2; stroke:none;" d="M210 326L211 327L210 326M240 326L240 327L244 329L242 333L245 332C243.355 334.742 240.288 334.85 241 332L238 335L241 340L248 344L246 343L247 345L246 345L240 341L240 342L264 362L266 360C265.211 352.348 256.581 340.203 249 338L251 334L248 335C248.073 330.096 244.6 327.248 240 326z"/>
<path style="fill:#2f3a38; stroke:none;" d="M247 326L248 327L247 326z"/>
<path style="fill:#8490b2; stroke:none;" d="M253 326L254 327L253 326M27 327L26 329L27 327z"/>
<path style="fill:#2f3a38; stroke:none;" d="M248 327L249 328L248 327z"/>
<path style="fill:#586e99; stroke:none;" d="M211 328L212 329L211 328z"/>
<path style="fill:#2f3a38; stroke:none;" d="M249 328L250 329L249 328z"/>
<path style="fill:#8490b2; stroke:none;" d="M212 329L213 330L212 329z"/>
<path style="fill:#2f3a38; stroke:none;" d="M228 329L233 334L228 329z"/>
<path style="fill:#cabbbe; stroke:none;" d="M230 329L231 330L230 329z"/>
<path style="fill:#8490b2; stroke:none;" d="M233 329L234 330L233 329M241 329L242 330L241 329z"/>
<path style="fill:#2f3a38; stroke:none;" d="M250 329L252 332L250 329z"/>
<path style="fill:#8490b2; stroke:none;" d="M228 330L234 336L228 330z"/>
<path style="fill:#cabbbe; stroke:none;" d="M231 330L232 331L231 330z"/>
<path style="fill:#8490b2; stroke:none;" d="M24 331L25 332L24 331z"/>
<path style="fill:#586e99; stroke:none;" d="M213 331L214 332L213 331z"/>
<path style="fill:#cabbbe; stroke:none;" d="M232 331L233 332L232 331z"/>
<path style="fill:#8490b2; stroke:none;" d="M238 331L237 333L238 331M255 331L256 332L255 331M258 331L259 332L258 331z"/>
<path style="fill:#cabbbe; stroke:none;" d="M233 332L234 333L233 332z"/>
<path style="fill:#8490b2; stroke:none;" d="M234 332L239 340L239 339L234 332z"/>
<path style="fill:#2f3a38; stroke:none;" d="M252 332L255 336L252 332z"/>
<path style="fill:#586e99; stroke:none;" d="M214 333L215 334L214 333M247 333L248 334L247 333z"/>
<path style="fill:#8490b2; stroke:none;" d="M256 333L257 334L256 333M259 333L260 340L261 340L259 333M215 334L216 335L215 334M228 334L229 335L228 334z"/>
<path style="fill:#2f3a38; stroke:none;" d="M234 334L235 335L234 334z"/>
<path style="fill:#8490b2; stroke:none;" d="M257 334L258 335L257 334z"/>
<path style="fill:#2f3a38; stroke:none;" d="M235 335L237 337L235 335z"/>
<path style="fill:#cabbbe; stroke:none;" d="M237 335L240 338L237 335z"/>
<path style="fill:#586e99; stroke:none;" d="M238.667 335.333L239.333 335.667L238.667 335.333M247 335L244 337L244 338L248 338L247 335M216 336L217 337L216 336z"/>
<path style="fill:#8490b2; stroke:none;" d="M234 336L235 337L234 336z"/>
<path style="fill:#586e99; stroke:none;" d="M235 336L236 337L235 336M240 336L241 337L240 336M267 336L267 341L268 341L267 336z"/>
<path style="fill:#8490b2; stroke:none;" d="M217 337L218 338L217 337z"/>
<path style="fill:#cabbbe; stroke:none;" d="M235 337L236 338L235 337z"/>
<path style="fill:#2f3a38; stroke:none;" d="M237 337L237 338L247 345L237 337z"/>
<path style="fill:#586e99; stroke:none;" d="M238 337L239 338L238 337M217 338L218 339L217 338z"/>
<path style="fill:#cabbbe; stroke:none;" d="M237 338L238 339L237 338z"/>
<path style="fill:#8490b2; stroke:none;" d="M218 339L219 340L218 339z"/>
<path style="fill:#586e99; stroke:none;" d="M239 339L241 341L239 339z"/>
<path style="fill:#cabbbe; stroke:none;" d="M242 339L245 342L242 339z"/>
<path style="fill:#586e99; stroke:none;" d="M244 339L245 340L244 339z"/>
<path style="fill:#cabbbe; stroke:none;" d="M239 340L240 341L239 340z"/>
<path style="fill:#586e99; stroke:none;" d="M242 340L243 341L242 340M251.333 340.667L251.667 341.333L251.333 340.667z"/>
<path style="fill:#8490b2; stroke:none;" d="M261.333 340.667L261.667 341.333L261.333 340.667M219 341L220 342L219 341z"/>
<path style="fill:#586e99; stroke:none;" d="M243 341L244 342L243 341M246 341L248 343L246 341M268 341L268 346L269 346L268 341z"/>
<path style="fill:#8490b2; stroke:none;" d="M238 342L239 343L238 342z"/>
<path style="fill:#cabbbe; stroke:none;" d="M245.667 342.333L246.333 342.667L245.667 342.333z"/>
<path style="fill:#8490b2; stroke:none;" d="M260 343L263 347L264 347L263 342L260 343z"/>
<path style="fill:#586e99; stroke:none;" d="M220 343L221 344L220 343M244 343L245 344L244 343z"/>
<path style="fill:#cabbbe; stroke:none;" d="M247 343L248 344L247 343z"/>
<path style="fill:#8490b2; stroke:none;" d="M221 344L222 345L221 344z"/>
<path style="fill:#586e99; stroke:none;" d="M245 344L246 345L245 344z"/>
<path style="fill:#cabbbe; stroke:none;" d="M248 344L250 346L248 344z"/>
<path style="fill:#586e99; stroke:none;" d="M249 344L250 345L249 344M221 345L222 346L221 345M231 345L232 346L231 345M240 345L236 348L236 349C239.766 349.087 241.162 350.274 240 354L239 349L238 349L238 352L234 349L239 353L237 356L246 360L246 357L244 358L244 357L248 352L242 356L244 354L244 353L242 351L245 350L240 348L240 345z"/>
<path style="fill:#2f3a38; stroke:none;" d="M247 345L249 347L247 345z"/>
<path style="fill:#586e99; stroke:none;" d="M248 345L249 346L248 345M253 345L254 346L253 345z"/>
<path style="fill:#8490b2; stroke:none;" d="M222 346L223 347L222 346M268 346L268 350L269 350L268 346z"/>
<path style="fill:#586e99; stroke:none;" d="M222 347L223 348L222 347z"/>
<path style="fill:#2f3a38; stroke:none;" d="M249 347L250 348L249 347z"/>
<path style="fill:#8490b2; stroke:none;" d="M264.333 347.667L264.667 348.333L264.333 347.667z"/>
<path style="fill:#586e99; stroke:none;" d="M269 347L270 353L271 353L269 347z"/>
<path style="fill:#8490b2; stroke:none;" d="M223 348L224 349L223 348M241 348L243 350L241 348z"/>
<path style="fill:#2f3a38; stroke:none;" d="M250 348L252 350L250 348z"/>
<path style="fill:#586e99; stroke:none;" d="M251 348L252 349L251 348M228 349L228 351L230 349L228 349M224 350L225 351L224 350z"/>
<path style="fill:#2f3a38; stroke:none;" d="M229 350L229 351L232 352L229 350M252 350L253 351L252 350z"/>
<path style="fill:#8490b2; stroke:none;" d="M265 350L266 351L265 350z"/>
<path style="fill:#586e99; stroke:none;" d="M230 351L231 352L230 351z"/>
<path style="fill:#cabbbe; stroke:none;" d="M233 351L234 352L233 351z"/>
<path style="fill:#2f3a38; stroke:none;" d="M253 351L255 353L253 351z"/>
<path style="fill:#586e99; stroke:none;" d="M225 352L226 353L225 352M228 352L228 353L231 356L229 360L232 359L238 375L249 381L246 377C246.647 371.069 245.011 367.338 241 363L252 371C252.067 366.598 249.479 364.48 246 362L251 369L235 354L228 352z"/>
<path style="fill:#2f3a38; stroke:none;" d="M232 352L235 354L235 353L232 352z"/>
<path style="fill:#586e99; stroke:none;" d="M233 352L234 353L233 352M253 352L254 353L253 352M258 352L259 356L260 356L261 354L258 352M261 352L263 354L261 352z"/>
<path style="fill:#8490b2; stroke:none;" d="M269 352L269 355L270 355L269 352M226 353L227 354L226 353M228.333 353.667L228.667 354.333L228.333 353.667z"/>
<path style="fill:#2f3a38; stroke:none;" d="M229 353L230 354L229 353z"/>
<path style="fill:#cabbbe; stroke:none;" d="M232 353L233 354L232 353z"/>
<path style="fill:#586e99; stroke:none;" d="M254 353L254 354L257 357L258 357L254 353z"/>
<path style="fill:#8490b2; stroke:none;" d="M266.333 353.667L266.667 354.333L266.333 353.667z"/>
<path style="fill:#586e99; stroke:none;" d="M226 354L227 355L226 354z"/>
<path style="fill:#cabbbe; stroke:none;" d="M233 354L234 355L233 354z"/>
<path style="fill:#2f3a38; stroke:none;" d="M235 354L236 355L235 354z"/>
<path style="fill:#cabbbe; stroke:none;" d="M237 354L238 355L237 354z"/>
<path style="fill:#8490b2; stroke:none;" d="M241 354L242 355L241 354z"/>
<path style="fill:#586e99; stroke:none;" d="M270 354L270 359L271 359L270 354z"/>
<path style="fill:#8490b2; stroke:none;" d="M227 355L228 356L227 355z"/>
<path style="fill:#2f3a38; stroke:none;" d="M236 355L237 356L236 355z"/>
<path style="fill:#cabbbe; stroke:none;" d="M238 355L239 356L238 355z"/>
<path style="fill:#8490b2; stroke:none;" d="M239 355L244 361L245 361L239 355z"/>
<path style="fill:#586e99; stroke:none;" d="M247 355L248 356L247 355z"/>
<path style="fill:#2f3a38; stroke:none;" d="M256 355L257 356L256 355M230.333 356.667L230.667 357.333L230.333 356.667z"/>
<path style="fill:#8490b2; stroke:none;" d="M232 356L233 357L232 356z"/>
<path style="fill:#2f3a38; stroke:none;" d="M234 356L235 357L234 356M237 356L237 357L245 362L237 356z"/>
<path style="fill:#cabbbe; stroke:none;" d="M240 356L241 357L240 356z"/>
<path style="fill:#8490b2; stroke:none;" d="M228 357L229 358L228 357z"/>
<path style="fill:#2f3a38; stroke:none;" d="M235 357L236 358L235 357z"/>
<path style="fill:#586e99; stroke:none;" d="M238 357L239 358L238 357z"/>
<path style="fill:#2f3a38; stroke:none;" d="M258 357L259 358L258 357z"/>
<path style="fill:#586e99; stroke:none;" d="M262 357L261 359L262 357z"/>
<path style="fill:#8490b2; stroke:none;" d="M229 358L230 359L229 358z"/>
<path style="fill:#586e99; stroke:none;" d="M239 358L240 359L239 358M241 358L242 359L241 358z"/>
<path style="fill:#cabbbe; stroke:none;" d="M242 358L243 359L242 358z"/>
<path style="fill:#2f3a38; stroke:none;" d="M259 358L260 359L259 358z"/>
<path style="fill:#8490b2; stroke:none;" d="M267 358L268 359L267 358M230 359L231 360L230 359z"/>
<path style="fill:#cabbbe; stroke:none;" d="M243 359L244 360L243 359z"/>
<path style="fill:#8490b2; stroke:none;" d="M270 359L270 362L271 362L270 359z"/>
<path style="fill:#586e99; stroke:none;" d="M242 360L243 361L242 360z"/>
<path style="fill:#cabbbe; stroke:none;" d="M245 360L246 361L245 360z"/>
<path style="fill:#586e99; stroke:none;" d="M249 360L248 362L249 360z"/>
<path style="fill:#8490b2; stroke:none;" d="M259 360L260 361L259 360z"/>
<path style="fill:#586e99; stroke:none;" d="M243 361L244 362L243 361z"/>
<path style="fill:#cabbbe; stroke:none;" d="M246 361L247 362L246 361z"/>
<path style="fill:#586e99; stroke:none;" d="M254 361L255 362L254 361z"/>
<path style="fill:#8490b2; stroke:none;" d="M260 361L261 362L260 361z"/>
<path style="fill:#2f3a38; stroke:none;" d="M245 362L246 363L245 362z"/>
<path style="fill:#cabbbe; stroke:none;" d="M247 362L248 363L247 362z"/>
<path style="fill:#8490b2; stroke:none;" d="M261 362L262 363L261 362z"/>
<path style="fill:#2f3a38; stroke:none;" d="M262 362L263 363L262 362M246 363L247 364L246 363z"/>
<path style="fill:#cabbbe; stroke:none;" d="M248 363L249 364L248 363z"/>
<path style="fill:#8490b2; stroke:none;" d="M268.333 363.667L268.667 364.333L268.333 363.667z"/>
<path style="fill:#586e99; stroke:none;" d="M271 363L271 366L272 366L271 363z"/>
<path style="fill:#2f3a38; stroke:none;" d="M244 364L245 365L244 364M247 364L248 365L247 364z"/>
<path style="fill:#cabbbe; stroke:none;" d="M249 364L250 365L249 364z"/>
<path style="fill:#8490b2; stroke:none;" d="M266 364L267 365L266 364z"/>
<path style="fill:#2f3a38; stroke:none;" d="M248 365L249 366L248 365z"/>
<path style="fill:#8490b2; stroke:none;" d="M241 366L243 368L241 366M271 366L271 370L272 370L271 366M263 368L264 369L263 368z"/>
<path style="fill:#2f3a38; stroke:none;" d="M266 368L267 369L266 368z"/>
<path style="fill:#8490b2; stroke:none;" d="M269 368L269 371L270 371L269 368z"/>
<path style="fill:#cabbbe; stroke:none;" d="M251 369L252 370L251 369z"/>
<path style="fill:#2f3a38; stroke:none;" d="M253 369L255 371L253 369z"/>
<path style="fill:#cabbbe; stroke:none;" d="M254.667 369.333L255.333 369.667L254.667 369.333M256 370L257 371L256 370z"/>
<path style="fill:#2f3a38; stroke:none;" d="M266 370L267 371L266 370z"/>
<path style="fill:#586e99; stroke:none;" d="M252 371L255 374L252 371z"/>
<path style="fill:#2f3a38; stroke:none;" d="M255 371L256 372L255 371z"/>
<path style="fill:#586e99; stroke:none;" d="M247 372L249 375L247 372z"/>
<path style="fill:#2f3a38; stroke:none;" d="M256 372L257 373L256 372M269.333 372.667L269.667 373.333L269.333 372.667z"/>
<path style="fill:#586e99; stroke:none;" d="M272.333 372.667L272.667 373.333L272.333 372.667M23 373L24 374L23 373z"/>
<path style="fill:#2f3a38; stroke:none;" d="M257 373L258 374L257 373z"/>
<path style="fill:#8490b2; stroke:none;" d="M265 373L267 377L268 377L265 373M270.333 373.667L270.667 374.333L270.333 373.667z"/>
<path style="fill:#586e99; stroke:none;" d="M250 374L251 375L250 374z"/>
<path style="fill:#2f3a38; stroke:none;" d="M255 374L256 375L255 374M258 374L259 375L258 374z"/>
<path style="fill:#586e99; stroke:none;" d="M262 374L263 375L262 374z"/>
<path style="fill:#8490b2; stroke:none;" d="M272.333 374.667L272.667 375.333L272.333 374.667z"/>
<path style="fill:#586e99; stroke:none;" d="M256 375L257 376L256 375z"/>
<path style="fill:#2f3a38; stroke:none;" d="M259 375L260 376L259 375z"/>
<path style="fill:#586e99; stroke:none;" d="M257 376L258 377L257 376M259 376L270 396L268 395L268 396L271 397L274 400L270 389L274 392L274 379L273 379L273 384L272 384L268 380L271 382L272 387L271 387L266 383L267 380L259 376M387 376L395 398L399 396L399 395L395 393L394 376L391 378L387 376M241 377L242 378L241 377M258 377L259 378L258 377z"/>
<path style="fill:#2f3a38; stroke:none;" d="M261 377L262 378L261 377z"/>
<path style="fill:#cabbbe; stroke:none;" d="M262 377L263 378L262 377z"/>
<path style="fill:#586e99; stroke:none;" d="M264 377L265 378L264 377M242 378L243 379L242 378M259 378L260 379L259 378M240 379L243 382L240 379M243 379L244 380L243 379z"/>
<path style="fill:#cabbbe; stroke:none;" d="M244 379L245 380L244 379z"/>
<path style="fill:#586e99; stroke:none;" d="M260 379L261 380L260 379M265 379L266 380L265 379z"/>
<path style="fill:#8490b2; stroke:none;" d="M242 380L243 381L242 380z"/>
<path style="fill:#586e99; stroke:none;" d="M261 380L262 381L261 380z"/>
<path style="fill:#8490b2; stroke:none;" d="M243 381L244 382L243 381z"/>
<path style="fill:#586e99; stroke:none;" d="M249 381L254 386L249 381M262 381L263 382L262 381z"/>
<path style="fill:#8490b2; stroke:none;" d="M244 382L244 383L248 385L248 384L244 382z"/>
<path style="fill:#586e99; stroke:none;" d="M245 382L246 383L245 382z"/>
<path style="fill:#8490b2; stroke:none;" d="M272.333 382.667L272.667 383.333L272.333 382.667z"/>
<path style="fill:#586e99; stroke:none;" d="M248 383L249 384L248 383M254 383L255 384L254 383M244 384C245.285 390.669 250.433 404.482 259 398L260 398L265 400L251 390L252 387L244 384M249 384L250 385L249 384z"/>
<path style="fill:#cabbbe; stroke:none;" d="M248 385L249 386L248 385z"/>
<path style="fill:#586e99; stroke:none;" d="M255 385L256 386L255 385z"/>
<path style="fill:#8490b2; stroke:none;" d="M249 386L250 387L249 386z"/>
<path style="fill:#586e99; stroke:none;" d="M254 386L254 389L255 389L254 386z"/>
<path style="fill:#8490b2; stroke:none;" d="M250 387L251 388L250 387z"/>
<path style="fill:#cabbbe; stroke:none;" d="M254 387L255 388L254 387z"/>
<path style="fill:#586e99; stroke:none;" d="M256 387L258 389L256 387z"/>
<path style="fill:#2f3a38; stroke:none;" d="M269 387L270 388L269 387z"/>
<path style="fill:#8490b2; stroke:none;" d="M251 388L255 391L251 388z"/>
<path style="fill:#2f3a38; stroke:none;" d="M251 389L252 390L251 389z"/>
<path style="fill:#586e99; stroke:none;" d="M255 389L256 390L255 389z"/>
<path style="fill:#8490b2; stroke:none;" d="M250 390L251 391L250 390z"/>
<path style="fill:#2f3a38; stroke:none;" d="M252 390L253 391L252 390z"/>
<path style="fill:#586e99; stroke:none;" d="M256 390L256 391L259 391L259 390L256 390z"/>
<path style="fill:#cabbbe; stroke:none;" d="M257 390L258 391L257 390z"/>
<path style="fill:#8490b2; stroke:none;" d="M255 391L256 392L255 391z"/>
<path style="fill:#cabbbe; stroke:none;" d="M256 392L257 393L256 392z"/>
<path style="fill:#586e99; stroke:none;" d="M261.667 392.333L262.333 392.667L261.667 392.333z"/>
<path style="fill:#8490b2; stroke:none;" d="M257 393L258 394L257 393z"/>
<path style="fill:#586e99; stroke:none;" d="M264 393L265 394L264 393M267 393L268 394L267 393z"/>
<path style="fill:#8490b2; stroke:none;" d="M258 394L263 399L258 394z"/>
<path style="fill:#586e99; stroke:none;" d="M264 395L265 396L264 395z"/>
<path style="fill:#8490b2; stroke:none;" d="M257 396L257 399L258 399L257 396z"/>
<path style="fill:#586e99; stroke:none;" d="M266 397L268 399L266 397z"/>
<path style="fill:#8490b2; stroke:none;" d="M258 400L261 400L260 398L258 400M263 399L264 400L263 399z"/>
<path style="fill:#586e99; stroke:none;" d="M268 399L269 400L268 399z"/>
</svg>
